<?xml version="1.0" encoding="UTF-8"?>
<svg xmlns="http://www.w3.org/2000/svg" xmlns:xlink="http://www.w3.org/1999/xlink" width="48px" height="48px" viewBox="0 0 48 48" version="1.1">
<g id="surface1">
<path style=" stroke:none;fill-rule:evenodd;fill:rgb(0%,29.411766%,61.56863%);fill-opacity:1;" d="M 22.957031 13.089844 C 23.652344 13.023438 24.351562 13.023438 25.042969 13.089844 L 25.519531 11.742188 L 25.539062 11.746094 C 26.660156 11.886719 27.753906 12.179688 28.792969 12.617188 L 28.8125 12.625 L 28.550781 14.03125 C 29.183594 14.320312 29.789062 14.671875 30.359375 15.074219 L 31.441406 14.144531 L 31.460938 14.160156 C 32.335938 14.820312 33.121094 15.601562 33.789062 16.472656 L 33.808594 16.496094 L 32.835938 16.496094 L 32.863281 16.464844 C 32.457031 15.988281 32.015625 15.542969 31.535156 15.136719 L 30.464844 16.050781 L 30.445312 16.039062 C 29.609375 15.363281 28.671875 14.824219 27.671875 14.433594 L 27.652344 14.425781 L 27.910156 13.039062 C 27.320312 12.828125 26.710938 12.664062 26.09375 12.550781 L 25.625 13.882812 L 25.601562 13.878906 C 25.074219 13.796875 24.535156 13.753906 24 13.753906 C 23.464844 13.753906 22.925781 13.796875 22.398438 13.878906 L 22.375 13.882812 L 21.90625 12.550781 C 21.289062 12.664062 20.679688 12.828125 20.089844 13.039062 L 20.347656 14.425781 L 20.328125 14.433594 C 19.328125 14.824219 18.390625 15.363281 17.554688 16.039062 L 17.535156 16.050781 L 16.464844 15.136719 C 15.988281 15.542969 15.542969 15.988281 15.136719 16.464844 L 15.164062 16.496094 L 14.191406 16.496094 L 14.210938 16.472656 C 14.878906 15.601562 15.664062 14.820312 16.539062 14.160156 L 16.558594 14.144531 L 17.640625 15.074219 C 18.207031 14.667969 18.816406 14.320312 19.449219 14.03125 L 19.1875 12.625 L 19.207031 12.617188 C 20.246094 12.179688 21.339844 11.886719 22.460938 11.746094 L 22.480469 11.742188 Z M 22.957031 13.089844 "/>
<path style=" stroke:none;fill-rule:evenodd;fill:rgb(0%,29.411766%,61.56863%);fill-opacity:1;" d="M 24 14.472656 C 26.207031 14.472656 28.238281 15.222656 29.855469 16.484375 L 29.25 16.484375 C 27.765625 15.441406 25.953125 14.832031 24 14.832031 C 22.046875 14.832031 20.234375 15.441406 18.75 16.484375 L 18.144531 16.484375 C 19.761719 15.222656 21.792969 14.472656 24 14.472656 Z M 24 14.472656 "/>
<path style=" stroke:none;fill-rule:evenodd;fill:rgb(0%,29.411766%,61.56863%);fill-opacity:1;" d="M 36.1875 19.40625 C 36.910156 20.210938 37.378906 21.175781 37.363281 22.554688 C 37.730469 22.265625 37.867188 21.0625 38.503906 20.609375 C 38.65625 22.316406 37.996094 23.539062 36.960938 24.625 C 36.890625 23.53125 36.03125 24.214844 35.792969 21.53125 C 36.226562 21.78125 36.238281 22.457031 36.902344 22.828125 C 36.136719 21.449219 36.210938 20.800781 36.1875 19.40625 Z M 34.140625 32.636719 C 34.152344 32.785156 34.171875 32.933594 34.1875 33.015625 C 33.800781 33.125 33.425781 33.273438 33.070312 33.511719 C 33.625 32.792969 33.839844 31.699219 33.714844 30.914062 C 32.804688 32.199219 31.542969 33.195312 31.667969 34.601562 C 31.65625 34.6875 31.660156 34.851562 31.664062 34.976562 C 31.21875 35.109375 30.796875 35.308594 30.386719 35.636719 C 30.3125 35.695312 30.214844 35.816406 30.195312 35.792969 C 30.179688 35.765625 30.285156 35.65625 30.351562 35.570312 C 30.867188 34.910156 31.199219 34.015625 31.488281 33.316406 C 29.558594 34.804688 29.046875 34.746094 28.035156 36.03125 C 27.746094 36.394531 26.464844 36.660156 26.046875 36.742188 C 25.949219 36.761719 25.949219 36.898438 26.042969 36.886719 C 26.519531 36.847656 27.367188 36.902344 27.691406 37.027344 C 29.378906 37.675781 30.699219 37.332031 32.460938 36.394531 C 31.53125 36.476562 30.601562 36.421875 29.671875 36.164062 C 29.824219 36.113281 29.972656 35.972656 30.132812 36.007812 C 32.148438 36.472656 33.550781 35.71875 34.9375 34.269531 C 33.734375 34.574219 32.804688 34.683594 31.878906 34.917969 L 31.878906 34.914062 C 31.9375 34.734375 32.21875 34.601562 32.21875 34.601562 C 33.597656 34 35.113281 34.535156 36.539062 32.222656 C 35.820312 32.667969 35.078125 32.773438 34.34375 32.972656 C 34.347656 32.859375 34.332031 32.714844 34.414062 32.570312 C 35.464844 31.546875 36.796875 31.988281 38.101562 29.109375 C 37.433594 29.203125 36.757812 29.769531 36.179688 30.199219 C 36.21875 30.054688 36.296875 29.859375 36.390625 29.6875 C 37.527344 28.683594 38.632812 27.929688 38.808594 26.316406 C 38.449219 26.679688 37.835938 27.039062 37.382812 27.300781 C 38.195312 26.082031 38.976562 24.675781 38.8125 22.894531 C 38.492188 24.359375 37.589844 24.527344 37.066406 25.648438 C 36.773438 24.789062 36.445312 24.3125 35.976562 23.757812 C 35.84375 26.273438 36.808594 26.179688 36.890625 27.988281 L 36.527344 28.277344 C 36.53125 27.402344 36.226562 26.507812 35.789062 25.78125 C 35.726562 27.097656 35.21875 28.675781 36.003906 29.792969 C 36.070312 30.015625 36.0625 30.191406 36.042969 30.300781 C 35.738281 30.523438 35.46875 30.6875 35.253906 30.707031 C 35.390625 29.9375 35.386719 29.074219 35.089844 28.296875 C 34.882812 29.707031 33.917969 30.839844 34.140625 32.636719 Z M 34.140625 32.636719 "/>
<path style=" stroke:none;fill-rule:evenodd;fill:rgb(0%,29.411766%,61.56863%);fill-opacity:1;" d="M 11.8125 19.40625 C 11.089844 20.210938 10.621094 21.175781 10.636719 22.554688 C 10.269531 22.265625 10.132812 21.0625 9.496094 20.609375 C 9.34375 22.316406 10.003906 23.539062 11.039062 24.625 C 11.109375 23.53125 11.96875 24.214844 12.207031 21.53125 C 11.773438 21.78125 11.761719 22.457031 11.097656 22.828125 C 11.863281 21.449219 11.789062 20.800781 11.8125 19.40625 Z M 13.859375 32.636719 C 13.847656 32.785156 13.828125 32.933594 13.8125 33.015625 C 14.199219 33.125 14.574219 33.273438 14.929688 33.511719 C 14.375 32.792969 14.160156 31.699219 14.285156 30.914062 C 15.195312 32.199219 16.457031 33.195312 16.332031 34.601562 C 16.34375 34.6875 16.339844 34.851562 16.335938 34.976562 C 16.78125 35.109375 17.203125 35.308594 17.613281 35.636719 C 17.6875 35.695312 17.785156 35.816406 17.804688 35.792969 C 17.820312 35.765625 17.714844 35.65625 17.648438 35.570312 C 17.132812 34.910156 16.800781 34.015625 16.511719 33.316406 C 18.441406 34.804688 18.953125 34.746094 19.964844 36.03125 C 20.253906 36.394531 21.535156 36.660156 21.953125 36.742188 C 22.050781 36.761719 22.050781 36.898438 21.957031 36.886719 C 21.480469 36.847656 20.632812 36.902344 20.308594 37.027344 C 18.621094 37.675781 17.300781 37.332031 15.539062 36.394531 C 16.46875 36.476562 17.398438 36.421875 18.328125 36.164062 C 18.175781 36.113281 18.027344 35.972656 17.867188 36.007812 C 15.851562 36.472656 14.449219 35.71875 13.0625 34.269531 C 14.265625 34.574219 15.195312 34.683594 16.121094 34.917969 L 16.121094 34.914062 C 16.0625 34.734375 15.78125 34.601562 15.78125 34.601562 C 14.402344 34 12.886719 34.535156 11.460938 32.222656 C 12.179688 32.667969 12.921875 32.773438 13.65625 32.972656 C 13.652344 32.859375 13.667969 32.714844 13.585938 32.570312 C 12.535156 31.546875 11.203125 31.988281 9.898438 29.109375 C 10.566406 29.203125 11.242188 29.769531 11.820312 30.199219 C 11.78125 30.054688 11.703125 29.859375 11.609375 29.6875 C 10.472656 28.683594 9.367188 27.929688 9.191406 26.316406 C 9.550781 26.679688 10.164062 27.039062 10.617188 27.300781 C 9.804688 26.082031 9.023438 24.675781 9.1875 22.894531 C 9.507812 24.359375 10.410156 24.527344 10.933594 25.648438 C 11.226562 24.789062 11.554688 24.3125 12.023438 23.757812 C 12.15625 26.273438 11.191406 26.179688 11.109375 27.988281 L 11.472656 28.277344 C 11.46875 27.402344 11.773438 26.507812 12.210938 25.78125 C 12.273438 27.097656 12.78125 28.675781 11.996094 29.792969 C 11.929688 30.015625 11.9375 30.191406 11.957031 30.300781 C 12.261719 30.523438 12.53125 30.6875 12.746094 30.707031 C 12.609375 29.9375 12.613281 29.074219 12.910156 28.296875 C 13.117188 29.707031 14.082031 30.839844 13.859375 32.636719 Z M 13.859375 32.636719 "/>
<path style=" stroke:none;fill-rule:evenodd;fill:rgb(0%,29.411766%,61.56863%);fill-opacity:1;" d="M 24 36.980469 L 24.671875 35.820312 L 23.328125 35.820312 Z M 37.074219 16.484375 L 24 39.128906 L 10.925781 16.484375 C 19.640625 16.484375 28.359375 16.484375 37.074219 16.484375 Z M 23.992188 32.597656 L 23.371094 31.523438 L 21.519531 31.523438 L 21.183594 32.101562 L 21.46875 32.597656 Z M 23.164062 31.164062 L 22.445312 29.917969 L 21.726562 31.164062 Z M 20.898438 31.164062 L 21.519531 30.089844 L 20.019531 30.089844 L 20.640625 31.164062 Z M 21.726562 29.730469 L 22.03125 29.199219 L 21.71875 28.65625 L 20.058594 28.65625 L 19.628906 29.40625 L 19.816406 29.730469 Z M 21.511719 28.300781 L 20.890625 27.226562 L 20.886719 27.226562 L 20.265625 28.300781 Z M 19.441406 28.300781 L 20.058594 27.226562 L 18.367188 27.226562 L 18.988281 28.300781 Z M 20.265625 26.867188 L 20.886719 25.792969 L 17.539062 25.792969 L 18.160156 26.867188 Z M 20.890625 25.792969 L 21.511719 26.867188 L 23.378906 26.867188 L 24 25.792969 Z M 21.71875 27.226562 L 22.445312 28.484375 L 23.171875 27.226562 Z M 24.003906 25.792969 L 24.621094 26.867188 L 26.488281 26.867188 L 27.109375 25.792969 Z M 24.828125 27.226562 L 25.554688 28.484375 L 26.285156 27.226562 Z M 27.113281 25.792969 L 27.734375 26.867188 L 29.839844 26.867188 L 30.460938 25.792969 Z M 27.941406 27.226562 L 28.5625 28.300781 L 29.015625 28.300781 L 29.632812 27.226562 Z M 28.375 29.40625 L 27.941406 28.65625 L 26.285156 28.65625 L 25.96875 29.199219 L 26.277344 29.730469 L 28.1875 29.730469 Z M 27.734375 28.300781 L 27.113281 27.226562 L 27.109375 27.226562 L 26.488281 28.300781 Z M 26.484375 30.089844 L 27.101562 31.164062 L 27.359375 31.164062 L 27.980469 30.089844 Z M 26.820312 32.101562 L 26.484375 31.523438 L 24.628906 31.523438 L 24.007812 32.597656 L 26.535156 32.597656 Z M 26.277344 31.164062 L 25.554688 29.917969 L 24.835938 31.164062 Z M 22.859375 29.199219 L 23.164062 29.730469 L 24.835938 29.730469 L 25.144531 29.199219 L 24.828125 28.65625 L 23.171875 28.65625 Z M 23.371094 30.089844 L 23.992188 31.164062 L 24.007812 31.164062 L 24.628906 30.089844 Z M 24.621094 28.300781 L 24.003906 27.226562 L 24 27.226562 L 23.378906 28.300781 Z M 12.785156 17.558594 L 35.214844 17.558594 L 32.734375 21.855469 L 15.265625 21.855469 Z M 15.886719 22.929688 L 32.117188 22.929688 L 31.496094 24.003906 L 16.507812 24.003906 Z M 24.878906 35.460938 L 25.5 34.386719 L 22.503906 34.386719 L 23.121094 35.460938 Z M 25.707031 34.027344 L 26.328125 32.953125 L 21.675781 32.953125 L 22.296875 34.027344 Z M 30.667969 25.433594 L 17.335938 25.433594 L 16.714844 24.359375 L 31.289062 24.359375 Z M 30.667969 25.433594 "/>
<path style=" stroke:none;fill-rule:evenodd;fill:rgb(0%,29.411766%,61.56863%);fill-opacity:1;" d="M 24 0 C 37.253906 0 48 10.746094 48 24 C 48 37.253906 37.253906 48 24 48 C 10.746094 48 0 37.253906 0 24 C 0 10.746094 10.746094 0 24 0 Z M 24 1.433594 C 11.535156 1.433594 1.433594 11.535156 1.433594 24 C 1.433594 36.464844 11.535156 46.566406 24 46.566406 C 36.464844 46.566406 46.566406 36.464844 46.566406 24 C 46.566406 11.535156 36.464844 1.433594 24 1.433594 Z M 24 1.433594 "/>
<path style=" stroke:none;fill-rule:evenodd;fill:rgb(0%,29.411766%,61.56863%);fill-opacity:1;" d="M 28.609375 6.90625 C 28.535156 7.160156 28.460938 7.335938 28.429688 7.539062 C 28.417969 7.617188 28.941406 7.484375 28.992188 7.480469 C 29 7.480469 29.003906 7.480469 29.007812 7.480469 C 29.015625 7.476562 29.023438 7.476562 29.03125 7.472656 C 29.125 7.449219 29.226562 7.441406 29.320312 7.414062 L 29.5625 7.335938 L 29.605469 7.320312 L 29.65625 7.304688 C 29.671875 7.296875 29.691406 7.28125 29.695312 7.265625 C 29.695312 7.246094 29.695312 7.226562 29.695312 7.214844 C 29.695312 7.199219 29.675781 7.191406 29.695312 7.179688 C 29.710938 7.179688 29.671875 7.136719 29.726562 7.148438 L 29.761719 7.167969 L 29.792969 7.183594 C 29.820312 7.199219 29.84375 7.230469 29.867188 7.253906 C 29.902344 7.292969 29.933594 7.328125 29.949219 7.367188 C 29.964844 7.402344 29.988281 7.492188 29.992188 7.523438 L 29.988281 7.527344 L 29.984375 7.546875 C 29.988281 7.554688 29.953125 7.636719 29.949219 7.636719 C 29.949219 7.65625 29.941406 7.683594 29.921875 7.691406 L 29.925781 7.691406 C 29.902344 7.710938 29.890625 7.703125 29.863281 7.714844 C 29.851562 7.761719 29.722656 7.792969 29.6875 7.789062 C 29.6875 7.785156 29.484375 7.824219 29.300781 7.851562 C 29.039062 7.910156 28.765625 7.949219 28.613281 7.972656 L 28.597656 7.976562 L 28.589844 7.976562 C 28.566406 7.980469 28.546875 7.980469 28.53125 7.984375 C 28.488281 7.992188 28.402344 7.992188 28.414062 8.035156 C 28.4375 8.125 28.414062 8.222656 28.519531 8.421875 C 28.550781 8.480469 28.582031 8.699219 28.609375 8.777344 C 28.640625 8.871094 28.699219 9.050781 28.734375 9.140625 C 28.761719 9.21875 28.820312 9.328125 28.855469 9.410156 C 28.878906 9.46875 28.898438 9.53125 28.925781 9.589844 C 29 9.746094 29.058594 9.835938 29.152344 9.953125 C 29.183594 9.992188 29.238281 10.066406 29.269531 10.101562 C 29.304688 10.132812 29.351562 10.175781 29.386719 10.203125 C 29.464844 10.269531 29.5625 10.316406 29.640625 10.355469 C 29.78125 10.433594 29.894531 10.480469 29.988281 10.511719 C 30.035156 10.523438 30.089844 10.539062 30.117188 10.546875 C 30.183594 10.574219 30.15625 10.585938 30.015625 10.617188 C 29.929688 10.636719 29.789062 10.6875 29.597656 10.699219 C 29.527344 10.703125 29.433594 10.703125 29.351562 10.71875 C 29.257812 10.738281 29.128906 10.679688 29.042969 10.628906 C 28.945312 10.574219 28.886719 10.539062 28.808594 10.429688 C 28.773438 10.382812 28.742188 10.308594 28.710938 10.257812 C 28.609375 10.078125 28.523438 9.925781 28.480469 9.789062 C 28.441406 9.660156 28.414062 9.507812 28.382812 9.40625 C 28.289062 9.089844 28.226562 8.882812 28.164062 8.730469 C 28.144531 8.679688 28.140625 8.664062 28.105469 8.65625 C 28.074219 8.652344 28.0625 8.683594 28.050781 8.699219 C 27.960938 8.839844 27.894531 9.007812 27.796875 9.144531 C 27.707031 9.265625 27.59375 9.359375 27.488281 9.460938 C 27.351562 9.585938 27.207031 9.695312 27 9.722656 C 26.933594 9.734375 26.839844 9.734375 26.765625 9.730469 C 26.632812 9.722656 26.488281 9.675781 26.292969 9.632812 C 26.082031 9.585938 25.734375 9.554688 25.515625 9.480469 C 25.296875 9.410156 25.285156 9.367188 25.394531 9.320312 C 25.648438 9.316406 26.257812 9.328125 26.492188 9.292969 C 26.71875 9.257812 26.890625 9.167969 27.078125 9.023438 C 27.171875 8.953125 27.242188 8.863281 27.328125 8.761719 C 27.398438 8.679688 27.496094 8.5625 27.53125 8.453125 C 27.550781 8.441406 27.628906 8.296875 27.703125 8.144531 C 27.644531 8.148438 27.59375 8.140625 27.546875 8.148438 C 27.460938 8.160156 27.398438 8.15625 27.34375 8.167969 C 27.238281 8.191406 27.183594 8.222656 27.152344 8.226562 C 27.097656 8.234375 27.089844 8.234375 27.019531 8.242188 C 26.964844 8.25 26.957031 8.273438 26.902344 8.285156 C 26.851562 8.292969 26.847656 8.296875 26.808594 8.308594 C 26.78125 8.320312 26.742188 8.324219 26.730469 8.335938 C 26.671875 8.386719 26.601562 8.367188 26.554688 8.398438 C 26.507812 8.402344 26.410156 8.367188 26.375 8.296875 C 26.375 8.292969 26.339844 8.210938 26.335938 8.203125 C 26.308594 8.140625 26.28125 8.09375 26.277344 8.09375 C 26.28125 7.9375 26.414062 7.882812 26.503906 7.867188 L 26.671875 7.839844 C 26.769531 7.847656 26.890625 7.804688 27.054688 7.773438 C 27.265625 7.738281 27.523438 7.738281 27.757812 7.675781 C 27.804688 7.664062 27.84375 7.652344 27.878906 7.644531 C 27.921875 7.539062 27.972656 7.421875 28.019531 7.296875 C 28.109375 6.953125 28.414062 6.148438 28.515625 5.675781 L 28.605469 5.109375 L 28.597656 5.109375 C 28.609375 5.035156 28.519531 4.929688 28.53125 4.863281 L 28.539062 4.871094 C 28.542969 4.859375 28.542969 4.847656 28.539062 4.832031 L 28.542969 4.835938 C 28.546875 4.796875 28.574219 4.757812 28.609375 4.734375 L 28.660156 4.738281 L 28.65625 4.738281 C 28.792969 4.757812 28.929688 4.820312 29.050781 4.871094 L 29.046875 4.878906 L 29.074219 4.898438 C 29.082031 4.898438 29.097656 4.929688 29.097656 4.941406 C 29.121094 4.953125 29.148438 4.976562 29.144531 5.003906 C 29.167969 5.015625 29.195312 5.046875 29.191406 5.074219 L 29.195312 5.074219 C 29.203125 5.117188 29.230469 5.128906 29.226562 5.175781 C 29.269531 5.222656 29.171875 5.382812 29.144531 5.425781 L 29.132812 5.425781 C 29.121094 5.492188 29.089844 5.585938 29.050781 5.644531 L 29.019531 5.722656 C 29.019531 5.722656 29.015625 5.734375 29.011719 5.738281 C 28.886719 5.996094 28.710938 6.574219 28.605469 6.90625 Z M 28.609375 6.90625 "/>
<path style=" stroke:none;fill-rule:evenodd;fill:rgb(0%,29.411766%,61.56863%);fill-opacity:1;" d="M 34.566406 9.445312 C 34.660156 9.5 34.636719 9.558594 34.652344 9.636719 C 34.660156 9.679688 34.6875 9.714844 34.675781 9.765625 C 34.660156 9.84375 34.496094 10.015625 34.445312 10.023438 C 34.378906 10.039062 34.328125 10.027344 34.257812 10.03125 C 34.214844 10.050781 34.167969 10.066406 34.125 10.082031 C 33.96875 10.136719 33.796875 9.796875 33.847656 9.664062 C 33.953125 9.59375 34.066406 9.601562 34.1875 9.574219 C 34.246094 9.558594 34.289062 9.507812 34.351562 9.488281 C 34.414062 9.464844 34.5 9.460938 34.566406 9.445312 Z M 38.605469 9.121094 C 38.304688 9.195312 37.910156 9.257812 37.75 9.304688 C 37.71875 9.3125 37.703125 9.382812 37.710938 9.40625 C 37.726562 9.457031 37.757812 9.519531 37.757812 9.570312 C 37.734375 9.589844 37.609375 9.574219 37.558594 9.585938 C 37.476562 9.605469 37.441406 9.59375 37.34375 9.59375 C 37.199219 9.597656 37.148438 9.585938 37.089844 9.636719 C 37.050781 9.671875 37.109375 9.945312 37.054688 10.035156 C 36.992188 10.136719 36.804688 10.109375 36.785156 10.222656 C 36.835938 10.277344 36.847656 10.328125 36.824219 10.386719 C 36.878906 10.40625 36.984375 10.382812 37.082031 10.375 C 37.148438 10.367188 37.1875 10.386719 37.230469 10.351562 C 37.238281 10.34375 37.25 10.332031 37.257812 10.324219 C 37.242188 10.210938 37.21875 10.109375 37.285156 9.988281 C 37.292969 9.96875 37.335938 9.847656 37.4375 9.804688 C 37.503906 9.78125 37.53125 9.667969 37.589844 9.65625 C 37.679688 9.636719 37.753906 9.660156 37.8125 9.6875 C 37.9375 9.800781 37.804688 9.957031 37.871094 10.101562 C 37.960938 10.15625 38.367188 9.980469 38.460938 9.945312 C 38.460938 9.941406 38.464844 9.9375 38.464844 9.933594 C 38.308594 9.808594 38.113281 9.691406 38.125 9.53125 C 38.269531 9.375 38.570312 9.589844 38.742188 9.660156 C 38.871094 9.710938 38.945312 9.644531 39.050781 9.6875 C 39.199219 9.75 39.269531 10.453125 39.078125 10.527344 C 38.6875 10.402344 37.816406 10.585938 37.367188 10.691406 C 37.363281 10.699219 37.359375 10.707031 37.355469 10.714844 C 37.378906 10.75 37.367188 10.769531 37.359375 10.804688 C 37.546875 10.957031 37.773438 11.070312 37.980469 11.222656 C 38.042969 11.273438 38.117188 11.386719 38.191406 11.621094 C 38.238281 11.765625 38.054688 11.8125 38.019531 11.855469 C 37.9375 11.910156 37.863281 11.867188 37.703125 11.863281 C 37.613281 11.859375 37.488281 11.8125 37.378906 11.789062 C 37.269531 11.761719 37.179688 11.753906 37.058594 11.714844 C 36.964844 11.679688 36.785156 11.65625 36.683594 11.621094 C 36.476562 11.554688 36.261719 11.503906 36.0625 11.441406 C 36.023438 11.4375 35.988281 11.433594 35.980469 11.425781 C 35.957031 11.425781 35.933594 11.410156 35.917969 11.398438 L 35.914062 11.402344 L 35.847656 11.371094 L 35.851562 11.375 C 35.847656 11.371094 35.84375 11.367188 35.839844 11.363281 C 35.820312 11.359375 35.804688 11.351562 35.789062 11.34375 C 35.753906 11.332031 35.722656 11.316406 35.691406 11.304688 C 35.660156 11.292969 35.632812 11.289062 35.621094 11.296875 L 35.589844 11.273438 L 35.554688 11.316406 L 35.640625 11.386719 L 35.640625 11.382812 C 35.65625 11.4375 35.804688 11.449219 35.847656 11.484375 L 35.851562 11.476562 L 35.960938 11.519531 C 35.96875 11.539062 36.0625 11.589844 36.082031 11.605469 C 36.082031 11.621094 36.085938 11.636719 36.101562 11.648438 L 36.097656 11.644531 L 36.101562 11.695312 C 36.117188 11.707031 36.113281 11.738281 36.125 11.753906 L 36.109375 11.773438 C 36.136719 11.796875 36.132812 11.792969 36.132812 11.820312 C 36.136719 11.832031 36.125 11.84375 36.117188 11.851562 L 36.121094 11.855469 L 36.121094 11.929688 L 36.089844 11.972656 L 36.097656 11.976562 L 36.0625 12.019531 L 36.054688 12.015625 L 36.050781 12.023438 L 35.976562 12.023438 L 35.972656 12.027344 L 35.902344 12.03125 L 35.898438 12.03125 L 35.882812 12.039062 L 35.839844 12.054688 L 35.820312 12.039062 C 35.796875 12.066406 35.792969 12.054688 35.757812 12.058594 L 35.742188 12.046875 L 35.734375 12.054688 C 35.621094 12.042969 35.601562 12.03125 35.492188 12.03125 C 35.46875 12.03125 35.429688 12.03125 35.398438 12.046875 C 35.375 12.054688 35.371094 12.070312 35.355469 12.085938 C 35.335938 12.105469 35.304688 12.128906 35.320312 12.152344 C 35.332031 12.179688 35.394531 12.203125 35.410156 12.210938 C 35.40625 12.203125 35.421875 12.21875 35.429688 12.21875 C 35.449219 12.234375 35.484375 12.234375 35.503906 12.25 C 35.507812 12.25 35.679688 12.316406 35.835938 12.386719 C 36 12.460938 36.210938 12.570312 36.214844 12.570312 L 36.214844 12.566406 C 36.359375 12.683594 36.304688 12.660156 36.375 12.828125 L 36.363281 12.839844 C 36.386719 12.859375 36.386719 12.867188 36.390625 12.894531 L 36.371094 12.917969 L 36.394531 12.9375 C 36.394531 12.992188 36.449219 13.101562 36.410156 13.144531 C 36.304688 13.257812 36.351562 13.234375 36.207031 13.183594 C 36.148438 13.164062 36.0625 13.09375 36.011719 13.070312 C 35.902344 13.019531 35.804688 12.960938 35.695312 12.910156 C 35.570312 12.855469 35.464844 12.773438 35.351562 12.722656 C 35.230469 12.671875 35.175781 12.59375 35.078125 12.5625 C 35.082031 12.558594 35.007812 12.558594 34.996094 12.550781 C 34.789062 12.785156 34.472656 13.308594 34.285156 13.546875 C 34.234375 13.691406 34.128906 13.746094 34.019531 13.828125 L 34.015625 13.824219 L 33.917969 13.9375 L 33.921875 13.9375 C 33.914062 13.941406 33.910156 13.945312 33.90625 13.949219 L 33.804688 14.011719 L 33.792969 14.003906 C 33.765625 14.042969 33.726562 14.078125 33.707031 14.058594 C 33.648438 14.003906 33.476562 13.84375 33.300781 13.6875 L 33.300781 13.683594 L 33.273438 13.59375 L 33.28125 13.582031 L 33.257812 13.5625 C 33.257812 13.546875 33.21875 13.480469 33.230469 13.46875 L 33.226562 13.464844 C 33.226562 13.445312 33.195312 13.375 33.179688 13.355469 L 33.152344 13.308594 C 33.152344 13.308594 33.09375 13.238281 33.09375 13.210938 C 33.082031 13.105469 33.046875 12.785156 32.964844 12.722656 C 32.964844 12.707031 32.960938 12.695312 32.949219 12.6875 L 32.925781 12.582031 L 32.945312 12.546875 L 32.917969 12.515625 C 32.917969 12.511719 32.917969 12.503906 32.921875 12.5 C 32.96875 12.492188 33.042969 12.585938 33.160156 12.707031 C 33.234375 12.785156 33.3125 12.835938 33.390625 12.921875 C 33.453125 12.988281 33.488281 13.074219 33.535156 13.132812 C 33.570312 13.179688 33.601562 13.214844 33.628906 13.238281 C 33.648438 13.253906 33.675781 13.261719 33.683594 13.265625 C 33.691406 13.253906 33.703125 13.246094 33.710938 13.234375 C 33.832031 13.078125 33.972656 12.839844 34.070312 12.714844 C 34.15625 12.605469 34.289062 12.445312 34.40625 12.320312 C 34.292969 12.226562 33.503906 11.910156 33.46875 11.925781 L 33.480469 11.921875 C 33.378906 11.839844 33.117188 11.785156 33.105469 11.621094 C 33.097656 11.625 33.101562 11.605469 33.097656 11.601562 L 33.101562 11.59375 C 33.070312 11.566406 33.0625 11.527344 33.042969 11.496094 L 33.050781 11.480469 C 33.023438 11.457031 32.96875 11.320312 32.992188 11.289062 L 32.984375 11.21875 L 32.988281 11.210938 L 32.96875 11.179688 C 32.960938 11.191406 32.96875 11.148438 32.980469 11.132812 L 32.96875 11.125 C 32.96875 11.113281 32.96875 11.105469 32.960938 11.089844 C 32.980469 11.078125 33.015625 11 33.046875 11.003906 C 33.117188 10.921875 33.25 11.089844 33.3125 11.089844 C 33.605469 11.234375 33.574219 11.285156 33.820312 11.410156 C 34.089844 11.546875 34.445312 11.742188 34.488281 11.777344 L 34.507812 11.785156 C 34.5625 11.832031 34.75 11.875 34.867188 11.878906 C 35 11.882812 35.066406 11.792969 35.140625 11.738281 L 35.191406 11.734375 C 35.230469 11.730469 35.265625 11.710938 35.296875 11.679688 L 35.386719 11.605469 C 35.308594 11.542969 35.269531 11.460938 35.199219 11.398438 L 35.160156 11.359375 L 35.164062 11.351562 C 35.078125 11.28125 35.003906 11.246094 34.984375 11.136719 L 34.984375 11.132812 L 34.980469 11.132812 L 35.003906 11.0625 C 35.027344 11.066406 35.089844 11.058594 35.105469 11.046875 C 35.132812 11.058594 35.226562 11.074219 35.25 11.070312 C 35.265625 11.070312 35.285156 11.09375 35.296875 11.101562 L 35.316406 11.082031 C 35.363281 11.121094 35.582031 11.101562 35.636719 11.097656 L 35.652344 11.109375 L 35.660156 11.097656 C 35.695312 11.109375 35.730469 11.109375 35.757812 11.125 C 35.765625 11.125 35.773438 11.125 35.78125 11.125 L 35.785156 11.121094 L 35.800781 11.125 C 35.835938 11.121094 35.871094 11.117188 35.90625 11.117188 C 35.949219 11.117188 35.988281 11.132812 36.023438 11.140625 C 36.519531 11.257812 37.035156 11.300781 37.488281 11.3125 C 37.492188 11.308594 37.496094 11.304688 37.5 11.300781 C 37.5 11.296875 37.5 11.292969 37.5 11.292969 C 37.183594 11.015625 36.636719 10.90625 36.242188 10.769531 C 35.980469 10.679688 35.65625 10.5625 35.433594 10.484375 C 35.398438 10.476562 35.359375 10.453125 35.320312 10.417969 C 35.3125 10.414062 35.308594 10.414062 35.300781 10.410156 C 35.292969 10.40625 35.289062 10.402344 35.277344 10.402344 C 35.273438 10.398438 35.269531 10.398438 35.265625 10.398438 C 35.261719 10.394531 35.25 10.390625 35.246094 10.386719 C 35.242188 10.386719 35.238281 10.382812 35.234375 10.382812 C 35.230469 10.378906 35.226562 10.375 35.21875 10.371094 L 35.117188 10.289062 L 35.109375 10.296875 C 35.09375 10.285156 35.082031 10.273438 35.066406 10.261719 L 35.011719 10.21875 C 35.007812 10.214844 35.007812 10.210938 35.003906 10.210938 C 35 10.199219 34.992188 10.1875 34.984375 10.179688 L 34.789062 10.019531 C 34.789062 10.015625 34.785156 10.011719 34.78125 10.007812 C 34.78125 10 34.777344 9.996094 34.773438 9.992188 C 34.769531 9.984375 34.761719 9.972656 34.757812 9.964844 C 34.757812 9.953125 34.75 9.945312 34.742188 9.9375 L 34.75 9.945312 C 34.75 9.9375 34.75 9.933594 34.75 9.929688 L 34.757812 9.917969 L 34.804688 9.859375 C 34.808594 9.851562 34.8125 9.847656 34.8125 9.84375 C 34.816406 9.839844 34.820312 9.835938 34.820312 9.828125 L 34.847656 9.800781 L 34.832031 9.800781 C 34.839844 9.800781 34.847656 9.796875 34.855469 9.792969 C 34.859375 9.789062 34.863281 9.789062 34.863281 9.785156 C 34.871094 9.777344 34.894531 9.777344 34.90625 9.777344 C 34.910156 9.777344 34.917969 9.777344 34.925781 9.777344 C 34.933594 9.78125 34.941406 9.78125 34.949219 9.78125 L 34.988281 9.816406 L 35.007812 9.792969 C 35.011719 9.796875 35.015625 9.796875 35.023438 9.792969 C 35.027344 9.796875 35.035156 9.796875 35.039062 9.800781 C 35.046875 9.800781 35.054688 9.804688 35.058594 9.804688 C 35.0625 9.808594 35.066406 9.8125 35.074219 9.816406 C 35.082031 9.824219 35.09375 9.832031 35.101562 9.835938 C 35.105469 9.839844 35.109375 9.839844 35.113281 9.84375 L 35.15625 9.878906 L 35.167969 9.867188 C 35.171875 9.867188 35.175781 9.871094 35.179688 9.871094 C 35.1875 9.875 35.207031 9.882812 35.21875 9.886719 C 35.222656 9.886719 35.230469 9.890625 35.238281 9.890625 C 35.242188 9.894531 35.25 9.894531 35.257812 9.894531 C 35.269531 9.898438 35.273438 9.902344 35.28125 9.90625 L 35.285156 9.902344 C 35.289062 9.902344 35.292969 9.902344 35.296875 9.902344 C 35.304688 9.90625 35.308594 9.90625 35.3125 9.90625 C 35.320312 9.910156 35.328125 9.910156 35.335938 9.910156 C 35.34375 9.914062 35.347656 9.914062 35.355469 9.917969 C 35.359375 9.921875 35.367188 9.921875 35.375 9.921875 C 35.378906 9.921875 35.386719 9.925781 35.390625 9.925781 C 35.394531 9.929688 35.402344 9.933594 35.40625 9.9375 L 35.40625 9.933594 C 35.410156 9.933594 35.414062 9.9375 35.421875 9.9375 C 35.425781 9.9375 35.429688 9.941406 35.4375 9.941406 C 35.441406 9.941406 35.445312 9.945312 35.453125 9.945312 C 35.460938 9.949219 35.472656 9.953125 35.484375 9.957031 C 35.488281 9.957031 35.492188 9.960938 35.496094 9.960938 C 35.527344 9.964844 35.554688 9.972656 35.585938 9.976562 C 35.953125 10.03125 36.363281 10.417969 36.625 9.914062 C 36.617188 9.878906 36.644531 9.75 36.589844 9.734375 C 36.511719 9.738281 36.386719 9.757812 36.308594 9.761719 C 36.234375 9.757812 36.070312 9.773438 35.953125 9.746094 C 35.90625 9.734375 35.867188 9.71875 35.835938 9.703125 C 35.835938 9.703125 35.835938 9.699219 35.835938 9.695312 C 35.867188 9.65625 35.902344 9.613281 35.945312 9.585938 C 36.117188 9.46875 36.371094 9.453125 36.5625 9.402344 C 36.550781 9.34375 36.527344 9.265625 36.523438 9.183594 C 36.511719 9.03125 36.410156 9.140625 36.332031 9.125 C 36.25 9.105469 36.359375 9.148438 36.332031 9.238281 C 36.304688 9.332031 36.070312 9.34375 36.007812 9.363281 C 35.945312 9.378906 35.890625 9.34375 35.835938 9.394531 C 35.726562 9.503906 35.621094 9.78125 35.417969 9.652344 C 35.382812 9.628906 35.15625 9.335938 35.191406 9.308594 C 35.214844 9.253906 35.292969 9.15625 35.3125 9.128906 C 35.390625 9.035156 35.515625 8.851562 35.550781 8.707031 C 35.566406 8.644531 35.546875 8.585938 35.539062 8.542969 C 35.53125 8.515625 35.558594 8.507812 35.574219 8.503906 C 35.6875 8.582031 35.792969 8.792969 35.800781 8.921875 C 35.878906 9.082031 36.105469 8.636719 36.203125 8.5625 C 36.28125 8.5 36.371094 8.578125 36.394531 8.625 C 36.414062 8.667969 36.394531 8.847656 36.339844 8.910156 C 36.289062 8.972656 36.417969 9.003906 36.417969 9.003906 L 36.550781 8.832031 C 36.550781 8.832031 36.578125 8.726562 36.507812 8.648438 C 36.457031 8.597656 36.425781 8.410156 36.449219 8.332031 C 36.484375 8.226562 36.621094 8.394531 36.648438 8.386719 C 36.738281 8.394531 36.804688 8.425781 36.894531 8.472656 C 36.960938 8.503906 36.988281 8.53125 37.046875 8.566406 C 37.175781 8.648438 37.050781 8.929688 37.199219 8.941406 C 37.5625 8.828125 37.960938 8.722656 38.320312 8.585938 L 38.359375 8.574219 C 38.390625 8.566406 38.484375 8.558594 38.496094 8.539062 C 38.5 8.535156 38.507812 8.53125 38.511719 8.53125 C 38.519531 8.527344 38.535156 8.515625 38.539062 8.511719 C 38.578125 8.488281 38.617188 8.484375 38.652344 8.457031 C 38.660156 8.453125 38.667969 8.449219 38.671875 8.445312 C 38.679688 8.441406 38.691406 8.433594 38.699219 8.425781 C 38.738281 8.398438 38.824219 8.335938 38.824219 8.285156 C 38.824219 8.273438 38.828125 8.269531 38.835938 8.257812 C 38.886719 8.171875 38.875 8.230469 38.890625 8.148438 C 38.898438 8.140625 38.90625 8.128906 38.90625 8.121094 L 38.917969 8.105469 C 38.921875 8.105469 38.925781 8.105469 38.925781 8.105469 C 38.992188 8.148438 38.949219 8.109375 39.003906 8.140625 C 39.007812 8.148438 39.011719 8.152344 39.015625 8.152344 C 39.015625 8.15625 39.019531 8.160156 39.023438 8.164062 C 39.035156 8.1875 39.121094 8.257812 39.125 8.261719 C 39.128906 8.265625 39.128906 8.269531 39.132812 8.269531 C 39.136719 8.277344 39.140625 8.285156 39.148438 8.289062 C 39.175781 8.3125 39.160156 8.296875 39.179688 8.328125 C 39.191406 8.347656 39.207031 8.367188 39.222656 8.378906 C 39.230469 8.382812 39.230469 8.386719 39.238281 8.390625 C 39.242188 8.394531 39.242188 8.402344 39.246094 8.40625 C 39.25 8.40625 39.25 8.410156 39.253906 8.414062 C 39.253906 8.425781 39.261719 8.433594 39.269531 8.445312 C 39.273438 8.449219 39.273438 8.457031 39.28125 8.460938 C 39.28125 8.46875 39.289062 8.476562 39.296875 8.484375 C 39.300781 8.492188 39.304688 8.5 39.3125 8.507812 C 39.3125 8.507812 39.316406 8.511719 39.320312 8.515625 C 39.324219 8.519531 39.328125 8.523438 39.332031 8.527344 C 39.335938 8.53125 39.335938 8.53125 39.335938 8.53125 C 39.339844 8.535156 39.339844 8.539062 39.339844 8.542969 C 39.34375 8.554688 39.34375 8.5625 39.351562 8.574219 C 39.351562 8.574219 39.355469 8.585938 39.355469 8.585938 C 39.355469 8.597656 39.363281 8.605469 39.367188 8.617188 C 39.367188 8.625 39.371094 8.636719 39.375 8.648438 C 39.378906 8.664062 39.382812 8.65625 39.378906 8.671875 C 39.375 8.679688 39.375 8.6875 39.375 8.691406 C 39.375 8.703125 39.378906 8.710938 39.378906 8.722656 C 39.378906 8.730469 39.378906 8.738281 39.378906 8.746094 C 39.378906 8.75 39.378906 8.75 39.378906 8.753906 C 39.378906 8.757812 39.378906 8.765625 39.378906 8.773438 C 39.378906 8.777344 39.378906 8.785156 39.378906 8.792969 C 39.378906 8.796875 39.375 8.804688 39.378906 8.808594 C 39.375 8.820312 39.375 8.832031 39.378906 8.84375 C 39.378906 8.851562 39.375 8.855469 39.375 8.867188 C 39.375 8.875 39.375 8.882812 39.375 8.890625 C 39.375 8.894531 39.375 8.902344 39.375 8.90625 C 39.371094 8.914062 39.371094 8.921875 39.371094 8.929688 C 39.367188 8.933594 39.367188 8.941406 39.367188 8.949219 L 39.335938 8.992188 C 39.328125 8.996094 39.320312 9.003906 39.316406 9.011719 C 39.3125 9.019531 39.304688 9.023438 39.300781 9.027344 C 39.292969 9.035156 39.277344 9.058594 39.261719 9.070312 C 39.25 9.074219 39.238281 9.089844 39.226562 9.089844 C 39.21875 9.09375 39.210938 9.09375 39.203125 9.097656 C 39.203125 9.097656 39.199219 9.097656 39.195312 9.101562 C 39.167969 9.101562 39.097656 9.105469 39.070312 9.117188 C 39.0625 9.117188 39.042969 9.121094 39.039062 9.121094 C 39.023438 9.121094 39.023438 9.121094 39.007812 9.128906 C 39.003906 9.128906 38.992188 9.128906 38.988281 9.132812 C 38.980469 9.128906 38.972656 9.128906 38.964844 9.132812 C 38.957031 9.132812 38.953125 9.132812 38.945312 9.132812 C 38.867188 9.113281 38.792969 9.121094 38.710938 9.128906 C 38.703125 9.128906 38.691406 9.125 38.683594 9.125 C 38.679688 9.125 38.675781 9.125 38.671875 9.125 C 38.664062 9.121094 38.660156 9.121094 38.65625 9.121094 Z M 38.605469 9.121094 "/>
<path style=" stroke:none;fill-rule:evenodd;fill:rgb(0%,29.411766%,61.56863%);fill-opacity:1;" d="M 20.929688 8.464844 C 21.058594 8.441406 21.160156 8.378906 21.269531 8.316406 C 21.335938 8.277344 21.40625 8.234375 21.476562 8.21875 C 21.71875 8.171875 21.886719 8.390625 21.792969 8.632812 C 21.734375 8.789062 21.671875 8.941406 21.613281 9.101562 C 21.589844 9.15625 21.574219 9.210938 21.550781 9.285156 C 21.625 9.308594 21.683594 9.335938 21.742188 9.351562 C 21.804688 9.371094 21.871094 9.386719 21.933594 9.402344 C 22.117188 9.453125 22.15625 9.488281 22.160156 9.613281 C 22.164062 9.746094 22.058594 9.898438 21.929688 9.941406 C 21.777344 9.988281 21.644531 9.960938 21.527344 9.859375 C 21.460938 9.804688 21.390625 9.746094 21.324219 9.6875 C 21.179688 9.859375 21.042969 10.015625 20.910156 10.175781 C 20.789062 10.320312 20.558594 10.359375 20.398438 10.257812 C 20.386719 10.253906 20.378906 10.246094 20.367188 10.238281 C 20.164062 10.085938 20.167969 10.03125 20.386719 9.898438 C 20.539062 9.804688 20.6875 9.703125 20.832031 9.597656 C 20.886719 9.554688 20.929688 9.496094 20.976562 9.441406 C 20.949219 9.371094 20.917969 9.3125 20.898438 9.253906 C 20.863281 9.136719 20.894531 9.09375 21.011719 9.09375 C 21.074219 9.089844 21.140625 9.09375 21.214844 9.09375 C 21.25 8.96875 21.277344 8.855469 21.308594 8.75 C 21.222656 8.675781 21.144531 8.671875 21.058594 8.710938 C 21.023438 8.726562 20.976562 8.757812 20.941406 8.75 C 20.773438 8.71875 20.722656 8.832031 20.640625 8.945312 C 20.398438 9.273438 20.203125 9.628906 20.019531 9.988281 C 19.9375 10.140625 19.84375 10.289062 19.75 10.433594 C 19.71875 10.480469 19.671875 10.519531 19.625 10.558594 C 19.566406 10.609375 19.5 10.601562 19.449219 10.546875 C 19.382812 10.472656 19.3125 10.394531 19.257812 10.3125 C 19.207031 10.234375 19.199219 10.144531 19.238281 10.054688 C 19.316406 9.855469 19.421875 9.675781 19.582031 9.539062 C 19.867188 9.289062 20.082031 8.996094 20.25 8.65625 C 20.289062 8.578125 20.34375 8.507812 20.402344 8.417969 C 20.367188 8.367188 20.332031 8.316406 20.292969 8.261719 C 20.265625 8.222656 20.230469 8.191406 20.207031 8.148438 C 20.140625 8.023438 20.191406 7.910156 20.332031 7.882812 C 20.414062 7.867188 20.5 7.867188 20.582031 7.855469 C 20.757812 7.824219 20.871094 7.710938 20.914062 7.542969 C 20.929688 7.480469 20.921875 7.433594 20.863281 7.40625 C 20.808594 7.382812 20.777344 7.414062 20.742188 7.453125 C 20.542969 7.667969 20.386719 7.683594 20.148438 7.527344 C 20.1875 7.433594 20.226562 7.34375 20.261719 7.253906 C 20.132812 7.15625 20.128906 7.15625 20.039062 7.246094 C 19.972656 7.3125 19.910156 7.351562 19.808594 7.292969 C 19.816406 7.230469 19.832031 7.167969 19.835938 7.101562 C 19.84375 7.039062 19.84375 6.976562 19.847656 6.914062 C 19.753906 6.886719 19.722656 6.945312 19.6875 6.992188 C 19.660156 7.023438 19.636719 7.058594 19.625 7.097656 C 19.441406 7.621094 19.125 8.078125 18.867188 8.5625 C 18.683594 8.914062 18.503906 9.265625 18.328125 9.617188 C 18.1875 9.894531 18.0625 10.179688 17.917969 10.453125 C 17.796875 10.6875 17.65625 10.910156 17.527344 11.136719 C 17.507812 11.167969 17.484375 11.195312 17.460938 11.222656 C 17.304688 11.394531 17.230469 11.382812 17.136719 11.164062 C 17.125 11.128906 17.109375 11.09375 17.085938 11.070312 C 16.964844 10.925781 16.980469 10.769531 17.046875 10.613281 C 17.105469 10.457031 17.183594 10.304688 17.234375 10.148438 C 17.261719 10.066406 17.335938 10.105469 17.371094 10.0625 C 17.460938 9.953125 17.574219 9.855469 17.644531 9.734375 C 18.277344 8.691406 18.902344 7.644531 19.53125 6.597656 C 19.574219 6.523438 19.609375 6.457031 19.605469 6.363281 C 19.597656 6.238281 19.695312 6.152344 19.785156 6.09375 C 19.855469 6.050781 19.902344 5.996094 19.945312 5.933594 C 20.066406 5.742188 20.195312 5.554688 20.320312 5.363281 C 20.34375 5.328125 20.351562 5.28125 20.382812 5.203125 C 20.261719 5.25 20.179688 5.28125 20.101562 5.3125 C 19.867188 5.414062 19.628906 5.519531 19.394531 5.621094 C 19.335938 5.648438 19.28125 5.683594 19.222656 5.714844 C 18.972656 5.851562 18.71875 5.902344 18.449219 5.789062 C 18.28125 5.71875 18.230469 5.640625 18.238281 5.484375 C 18.5625 5.402344 18.890625 5.339844 19.203125 5.234375 C 19.519531 5.132812 19.835938 5.023438 20.148438 4.835938 C 19.933594 4.699219 19.75 4.574219 19.558594 4.457031 C 19.464844 4.398438 19.40625 4.324219 19.402344 4.210938 C 19.402344 4.121094 19.449219 4.074219 19.539062 4.097656 C 19.75 4.15625 19.960938 4.152344 20.179688 4.160156 C 20.304688 4.164062 20.4375 4.203125 20.554688 4.257812 C 20.722656 4.335938 20.75 4.433594 20.683594 4.636719 C 20.746094 4.613281 20.792969 4.605469 20.835938 4.582031 C 20.980469 4.515625 21.121094 4.433594 21.269531 4.371094 C 21.503906 4.273438 21.582031 4.347656 21.652344 4.519531 C 21.664062 4.554688 21.679688 4.585938 21.691406 4.621094 C 21.757812 4.800781 21.683594 4.945312 21.5 4.996094 C 21.332031 5.042969 21.15625 5.085938 20.988281 5.136719 C 20.929688 5.15625 20.859375 5.191406 20.824219 5.238281 C 20.570312 5.585938 20.320312 5.933594 20.070312 6.285156 C 20.058594 6.304688 20.050781 6.328125 20.039062 6.355469 C 20.0625 6.386719 20.085938 6.425781 20.113281 6.453125 C 20.199219 6.539062 20.242188 6.53125 20.308594 6.433594 C 20.351562 6.367188 20.394531 6.304688 20.445312 6.242188 C 20.636719 6.019531 20.800781 5.78125 20.8125 5.46875 C 20.925781 5.398438 21.027344 5.4375 21.121094 5.492188 C 21.15625 5.511719 21.183594 5.582031 21.179688 5.625 C 21.160156 5.746094 21.125 5.867188 21.09375 5.992188 C 21.214844 6.078125 21.230469 6.082031 21.328125 5.988281 C 21.398438 5.917969 21.46875 5.839844 21.519531 5.753906 C 21.558594 5.683594 21.609375 5.667969 21.679688 5.671875 C 21.804688 5.679688 21.914062 5.773438 21.964844 5.910156 C 22.007812 6.039062 21.957031 6.132812 21.855469 6.207031 C 21.761719 6.277344 21.671875 6.359375 21.566406 6.414062 C 21.359375 6.53125 21.230469 6.714844 21.105469 6.90625 C 21.09375 6.925781 21.089844 6.949219 21.078125 6.976562 C 21.148438 7.046875 21.214844 7.039062 21.277344 6.96875 C 21.332031 6.90625 21.378906 6.835938 21.441406 6.78125 C 21.496094 6.726562 21.5625 6.679688 21.632812 6.652344 C 21.738281 6.617188 21.808594 6.664062 21.851562 6.773438 C 21.878906 6.839844 21.910156 6.902344 21.949219 6.957031 C 22.019531 7.054688 22.019531 7.140625 21.925781 7.226562 C 21.851562 7.289062 21.773438 7.339844 21.699219 7.402344 C 21.582031 7.492188 21.574219 7.515625 21.621094 7.660156 C 21.664062 7.800781 21.644531 7.863281 21.511719 7.941406 C 21.394531 8.003906 21.277344 8.058594 21.160156 8.125 C 21.027344 8.199219 20.949219 8.3125 20.929688 8.464844 Z M 20.679688 6.878906 C 20.75 6.753906 20.816406 6.648438 20.867188 6.535156 C 20.882812 6.503906 20.867188 6.433594 20.839844 6.410156 C 20.816406 6.394531 20.75 6.410156 20.71875 6.429688 C 20.601562 6.511719 20.550781 6.644531 20.488281 6.777344 C 20.550781 6.808594 20.601562 6.839844 20.679688 6.878906 Z M 19.953125 7.929688 C 19.929688 8.019531 19.910156 8.082031 19.902344 8.121094 C 19.945312 8.234375 20.019531 8.335938 20.011719 8.425781 C 20 8.527344 19.925781 8.636719 19.855469 8.714844 C 19.71875 8.867188 19.539062 8.894531 19.269531 8.679688 C 19.351562 8.332031 19.546875 8.109375 19.953125 7.929688 Z M 19.953125 7.929688 "/>
<path style=" stroke:none;fill-rule:evenodd;fill:rgb(0%,29.411766%,61.56863%);fill-opacity:1;" d="M 10.976562 6.605469 C 10.992188 6.601562 10.988281 6.585938 11.066406 6.597656 C 11.128906 6.628906 11.128906 6.625 11.195312 6.640625 C 11.257812 6.660156 11.375 6.746094 11.484375 6.820312 C 11.59375 6.894531 11.746094 7.09375 11.789062 7.261719 C 11.828125 7.429688 11.816406 7.640625 11.78125 7.789062 C 11.769531 7.824219 11.714844 7.960938 11.675781 8.132812 C 11.628906 8.332031 11.59375 8.585938 11.523438 8.855469 C 11.492188 8.988281 11.433594 9.140625 11.402344 9.265625 C 11.367188 9.398438 11.351562 9.535156 11.324219 9.636719 C 11.292969 9.761719 11.253906 9.851562 11.238281 9.894531 C 11.160156 10.132812 11.0625 10.453125 11 10.496094 C 11 10.496094 11.023438 10.074219 11.039062 9.757812 C 11.046875 9.621094 11.050781 9.503906 11.050781 9.449219 C 11.046875 9.285156 11.082031 9.117188 11.085938 8.960938 C 11.089844 8.527344 11.078125 8.109375 11.074219 7.644531 C 11.082031 7.476562 11.058594 7.324219 11.027344 7.160156 C 10.992188 6.996094 10.898438 6.664062 10.976562 6.605469 Z M 13.375 11.554688 L 13.546875 11.730469 L 13.558594 11.738281 C 13.621094 11.835938 13.679688 11.957031 13.71875 12.046875 C 13.738281 12.09375 13.765625 12.125 13.785156 12.148438 C 13.8125 12.175781 13.847656 12.160156 13.925781 12.132812 C 13.964844 12.117188 14 12.136719 14.039062 12.128906 C 14.085938 12.125 14.121094 12.148438 14.136719 12.164062 C 14.160156 12.179688 14.21875 12.230469 14.238281 12.28125 C 14.261719 12.34375 14.261719 12.414062 14.269531 12.457031 C 14.285156 12.53125 14.28125 12.582031 14.28125 12.582031 C 14.277344 12.683594 14.277344 12.730469 14.292969 12.820312 C 14.316406 12.945312 14.3125 13.035156 14.3125 13.035156 C 14.359375 13.050781 14.390625 13.019531 14.421875 12.988281 C 14.511719 12.898438 14.585938 12.71875 14.585938 12.71875 C 14.636719 12.554688 14.703125 12.546875 14.753906 12.511719 C 14.800781 12.480469 14.980469 12.511719 15.078125 12.589844 C 15.183594 12.675781 15.183594 12.824219 15.148438 12.875 C 15.050781 13.007812 14.957031 13.109375 14.859375 13.246094 C 14.789062 13.34375 14.710938 13.480469 14.640625 13.582031 C 14.632812 13.601562 14.519531 13.695312 14.492188 13.828125 C 14.46875 13.945312 14.277344 14.039062 14.21875 14.027344 C 14.109375 14.003906 13.820312 13.929688 13.78125 13.8125 C 13.75 13.714844 13.703125 13.550781 13.691406 13.527344 C 13.675781 13.492188 13.6875 13.214844 13.613281 13.054688 C 13.5625 12.949219 13.523438 12.886719 13.5 12.820312 C 13.484375 12.773438 13.46875 12.761719 13.429688 12.75 C 13.429688 12.75 13.367188 12.753906 13.292969 12.761719 C 13.246094 12.761719 13.191406 12.808594 13.140625 12.804688 C 13.109375 12.804688 13.027344 12.804688 13.003906 12.796875 C 12.972656 12.789062 12.960938 12.753906 12.996094 12.695312 C 13.003906 12.679688 13.011719 12.625 13.03125 12.605469 C 13.042969 12.589844 13.0625 12.566406 13.074219 12.554688 C 13.082031 12.542969 13.105469 12.523438 13.109375 12.519531 C 13.1875 12.4375 13.292969 12.386719 13.292969 12.386719 L 13.285156 12.363281 C 13.273438 12.332031 13.265625 12.3125 13.230469 12.277344 C 13.207031 12.25 13.148438 12.207031 13.105469 12.15625 C 13.066406 12.109375 12.945312 11.894531 12.882812 11.75 L 12.796875 11.625 L 12.792969 11.625 L 12.757812 11.667969 C 12.726562 11.722656 12.726562 11.804688 12.671875 11.847656 C 12.679688 11.859375 12.605469 11.949219 12.621094 11.972656 L 12.605469 12.03125 L 12.597656 12.035156 C 12.609375 12.0625 12.59375 12.078125 12.597656 12.105469 C 12.578125 12.117188 12.453125 12.570312 12.433594 12.546875 C 12.433594 12.554688 12.433594 12.558594 12.433594 12.566406 C 12.378906 12.609375 12.328125 12.621094 12.257812 12.636719 C 12.242188 12.617188 12.1875 12.652344 12.164062 12.664062 L 12.125 12.644531 L 12.121094 12.644531 C 11.96875 12.539062 11.929688 12.363281 11.945312 12.195312 C 11.949219 12.191406 11.96875 12.058594 11.964844 12.042969 C 11.976562 12.007812 11.9375 11.996094 11.960938 11.910156 L 11.957031 11.910156 C 11.972656 11.871094 11.988281 11.804688 11.972656 11.761719 L 11.972656 11.730469 C 11.988281 11.6875 11.988281 11.648438 11.972656 11.59375 C 11.976562 11.578125 11.972656 11.5625 11.984375 11.546875 C 11.980469 11.539062 12.007812 11.417969 12.011719 11.390625 C 12.015625 11.347656 12.03125 11.277344 12.039062 11.234375 C 12.054688 11.222656 12.066406 11.097656 12.070312 11.074219 C 12.070312 11.074219 12.074219 10.824219 12.074219 10.796875 L 12.078125 10.78125 L 12.097656 10.710938 C 12.078125 10.683594 12.125 10.550781 12.121094 10.550781 C 12.125 10.53125 12.144531 10.382812 12.144531 10.382812 L 12.15625 10.328125 C 12.148438 10.308594 12.148438 10.292969 12.140625 10.277344 C 12.132812 10.257812 12.113281 10.242188 12.105469 10.226562 L 12.058594 10.257812 C 12.074219 10.277344 12.019531 10.351562 11.996094 10.367188 C 12 10.371094 11.90625 10.570312 11.875 10.589844 C 11.882812 10.601562 11.816406 10.765625 11.800781 10.78125 C 11.804688 10.789062 11.671875 10.996094 11.695312 11.027344 C 11.6875 11.058594 11.605469 11.199219 11.609375 11.203125 C 11.578125 11.226562 11.523438 11.378906 11.535156 11.398438 C 11.527344 11.414062 11.527344 11.449219 11.511719 11.460938 L 11.511719 11.464844 C 11.5 11.488281 11.449219 11.570312 11.460938 11.585938 C 11.449219 11.601562 11.453125 11.640625 11.4375 11.652344 C 11.414062 11.722656 11.375 11.761719 11.367188 11.835938 L 11.359375 11.839844 L 11.363281 11.84375 L 11.347656 11.890625 C 11.335938 11.945312 11.304688 12.03125 11.285156 12.101562 L 11.28125 12.121094 C 11.273438 12.148438 11.238281 12.265625 11.25 12.28125 C 11.242188 12.296875 11.246094 12.332031 11.226562 12.347656 L 11.230469 12.347656 C 11.207031 12.476562 11.082031 12.683594 11.066406 12.777344 C 11.054688 12.847656 10.835938 13.015625 10.769531 13.027344 C 10.765625 13.023438 10.660156 13.042969 10.644531 13.046875 C 10.640625 13.042969 10.496094 13.09375 10.472656 13.097656 C 10.46875 13.09375 10.164062 13.1875 10.125 13.191406 C 10.117188 13.183594 10.007812 13.230469 9.992188 13.160156 L 9.957031 13 C 9.980469 12.96875 9.976562 12.792969 10.007812 12.773438 L 10.007812 12.769531 C 10.011719 12.742188 10.078125 12.574219 10.074219 12.570312 C 10.085938 12.554688 10.144531 12.472656 10.140625 12.464844 L 10.160156 12.441406 C 10.25 12.359375 10.957031 11.15625 10.957031 11.15625 C 11.03125 11.058594 11.089844 10.855469 11.1875 10.789062 L 11.183594 10.785156 C 11.199219 10.757812 11.351562 10.53125 11.351562 10.53125 C 11.367188 10.492188 11.519531 10.273438 11.515625 10.273438 C 11.535156 10.25 11.628906 10.136719 11.625 10.128906 C 11.691406 10.082031 11.699219 9.953125 11.753906 9.914062 L 11.75 9.914062 C 11.769531 9.878906 11.78125 9.828125 11.8125 9.804688 L 11.8125 9.800781 C 11.828125 9.78125 11.839844 9.75 11.824219 9.726562 L 11.828125 9.726562 L 11.628906 9.4375 C 11.640625 9.417969 11.707031 9.25 11.707031 9.25 C 11.714844 9.222656 11.945312 8.824219 11.957031 8.820312 C 11.929688 8.8125 12.003906 8.800781 12.027344 8.773438 L 12.074219 8.800781 C 12.082031 8.816406 12.101562 8.824219 12.113281 8.839844 C 12.125 8.832031 12.160156 8.890625 12.167969 8.902344 L 12.167969 8.886719 C 12.164062 8.902344 12.285156 9.089844 12.304688 9.121094 L 12.339844 9.070312 C 12.390625 9.058594 12.664062 8.816406 12.644531 8.789062 C 12.757812 8.710938 12.730469 8.726562 12.847656 8.714844 L 12.914062 8.757812 C 13.078125 8.847656 12.933594 9.007812 12.949219 9.03125 C 12.9375 9.070312 12.933594 9.160156 12.910156 9.175781 C 12.925781 9.199219 12.878906 9.402344 12.867188 9.410156 L 12.871094 9.417969 L 12.734375 9.664062 C 12.738281 9.671875 12.707031 9.886719 12.691406 9.902344 C 12.695312 9.910156 12.738281 10.230469 12.8125 10.335938 C 12.808594 10.339844 12.867188 10.429688 12.871094 10.4375 L 12.953125 10.257812 C 13.019531 10.214844 13.015625 10.023438 13.085938 9.972656 C 13.070312 9.953125 13.285156 9.796875 13.277344 9.796875 C 13.429688 9.734375 13.667969 9.703125 13.777344 9.863281 C 13.78125 9.84375 13.851562 9.992188 13.804688 10.023438 C 13.820312 10.042969 13.804688 10.0625 13.800781 10.097656 L 13.804688 10.457031 C 13.800781 10.460938 13.804688 10.519531 13.808594 10.523438 C 13.792969 10.535156 13.78125 10.726562 13.78125 10.761719 L 13.777344 10.832031 C 13.765625 10.839844 13.777344 10.996094 13.777344 11.035156 C 13.746094 11.105469 13.742188 11.144531 13.714844 11.203125 C 13.683594 11.25 13.625 11.296875 13.578125 11.359375 C 13.511719 11.472656 13.480469 11.480469 13.375 11.554688 Z M 13.382812 10.582031 C 13.371094 10.703125 13.398438 10.753906 13.363281 10.851562 C 13.378906 10.878906 13.3125 11.019531 13.292969 11.050781 L 13.292969 11.054688 L 13.203125 11.121094 L 13.035156 10.875 C 13.042969 10.871094 13.039062 10.832031 13.074219 10.78125 L 13.078125 10.785156 L 13.160156 10.558594 L 13.214844 10.472656 L 13.253906 10.394531 L 13.300781 10.363281 L 13.363281 10.390625 C 13.355469 10.449219 13.375 10.515625 13.382812 10.582031 Z M 12.269531 11.847656 C 12.222656 11.753906 12.253906 11.519531 12.25 11.433594 C 12.246094 11.371094 12.285156 11.238281 12.292969 11.195312 C 12.300781 11.160156 12.34375 10.972656 12.335938 10.960938 L 12.355469 10.933594 L 12.382812 10.929688 L 12.414062 10.96875 L 12.511719 11.113281 C 12.539062 11.175781 12.597656 11.222656 12.53125 11.335938 C 12.519531 11.359375 12.527344 11.398438 12.488281 11.476562 C 12.484375 11.480469 12.453125 11.53125 12.425781 11.601562 C 12.40625 11.644531 12.394531 11.691406 12.371094 11.738281 C 12.347656 11.78125 12.320312 11.824219 12.296875 11.851562 C 12.28125 11.859375 12.277344 11.859375 12.269531 11.847656 Z M 12.269531 11.847656 "/>
<path style=" stroke:none;fill-rule:evenodd;fill:rgb(0%,29.411766%,61.56863%);fill-opacity:1;" d="M 15.953125 21.191406 L 15.953125 20.859375 C 16.140625 20.859375 16.269531 20.832031 16.335938 20.789062 C 16.402344 20.742188 16.433594 20.65625 16.433594 20.535156 L 16.433594 19.109375 C 16.433594 18.976562 16.40625 18.890625 16.351562 18.851562 C 16.296875 18.8125 16.164062 18.789062 15.953125 18.785156 L 15.953125 18.476562 C 16.144531 18.476562 16.3125 18.460938 16.457031 18.433594 C 16.605469 18.410156 16.734375 18.273438 16.851562 18.222656 L 17.214844 18.222656 L 17.214844 20.535156 C 17.214844 20.65625 17.25 20.742188 17.320312 20.789062 C 17.386719 20.832031 17.519531 20.859375 17.714844 20.859375 L 17.714844 21.191406 Z M 15.953125 21.191406 "/>
<path style=" stroke:none;fill-rule:evenodd;fill:rgb(0%,29.411766%,61.56863%);fill-opacity:1;" d="M 21.757812 19.949219 C 21.628906 20.027344 21.496094 20.085938 21.363281 20.125 C 21.230469 20.160156 21.085938 20.179688 20.933594 20.179688 C 20.597656 20.179688 20.320312 20.09375 20.109375 19.921875 C 19.894531 19.75 19.785156 19.527344 19.785156 19.257812 C 19.785156 18.960938 19.910156 18.722656 20.164062 18.539062 C 20.414062 18.355469 20.746094 18.261719 21.152344 18.261719 C 21.601562 18.261719 21.949219 18.386719 22.195312 18.628906 C 22.4375 18.871094 22.558594 19.21875 22.558594 19.664062 C 22.558594 20.148438 22.425781 20.523438 22.15625 20.789062 C 21.886719 21.054688 21.507812 21.191406 21.019531 21.191406 C 20.707031 21.191406 20.445312 21.136719 20.242188 21.027344 C 20.039062 20.921875 19.9375 20.792969 19.9375 20.636719 C 19.9375 20.542969 19.972656 20.464844 20.039062 20.410156 C 20.105469 20.351562 20.191406 20.324219 20.304688 20.324219 C 20.480469 20.324219 20.601562 20.429688 20.671875 20.640625 C 20.683594 20.667969 20.6875 20.6875 20.695312 20.699219 C 20.710938 20.757812 20.742188 20.796875 20.78125 20.820312 C 20.824219 20.839844 20.894531 20.851562 20.988281 20.851562 C 21.226562 20.851562 21.414062 20.769531 21.550781 20.609375 C 21.6875 20.449219 21.757812 20.230469 21.757812 19.949219 Z M 21.714844 19.230469 C 21.714844 19.046875 21.667969 18.90625 21.574219 18.804688 C 21.480469 18.707031 21.347656 18.65625 21.179688 18.65625 C 21 18.65625 20.863281 18.707031 20.765625 18.804688 C 20.667969 18.902344 20.617188 19.042969 20.617188 19.21875 C 20.617188 19.394531 20.664062 19.53125 20.757812 19.632812 C 20.851562 19.730469 20.980469 19.78125 21.144531 19.78125 C 21.332031 19.78125 21.472656 19.734375 21.570312 19.640625 C 21.667969 19.546875 21.714844 19.410156 21.714844 19.230469 Z M 21.714844 19.230469 "/>
<path style=" stroke:none;fill-rule:evenodd;fill:rgb(0%,29.411766%,61.56863%);fill-opacity:1;" d="M 31.613281 19.949219 C 31.484375 20.027344 31.355469 20.085938 31.222656 20.125 C 31.089844 20.160156 30.945312 20.179688 30.792969 20.179688 C 30.457031 20.179688 30.179688 20.09375 29.964844 19.921875 C 29.75 19.75 29.644531 19.527344 29.644531 19.257812 C 29.644531 18.960938 29.769531 18.722656 30.023438 18.539062 C 30.273438 18.355469 30.601562 18.261719 31.011719 18.261719 C 31.460938 18.261719 31.808594 18.386719 32.050781 18.628906 C 32.296875 18.871094 32.417969 19.21875 32.417969 19.664062 C 32.417969 20.148438 32.285156 20.523438 32.011719 20.789062 C 31.742188 21.054688 31.367188 21.191406 30.878906 21.191406 C 30.5625 21.191406 30.304688 21.136719 30.101562 21.027344 C 29.898438 20.921875 29.796875 20.792969 29.796875 20.636719 C 29.796875 20.542969 29.828125 20.464844 29.894531 20.410156 C 29.960938 20.351562 30.050781 20.324219 30.164062 20.324219 C 30.335938 20.324219 30.460938 20.429688 30.53125 20.640625 C 30.539062 20.667969 30.546875 20.6875 30.550781 20.699219 C 30.570312 20.757812 30.601562 20.796875 30.640625 20.820312 C 30.683594 20.839844 30.75 20.851562 30.847656 20.851562 C 31.085938 20.851562 31.273438 20.769531 31.410156 20.609375 C 31.546875 20.449219 31.613281 20.230469 31.613281 19.949219 Z M 31.574219 19.230469 C 31.574219 19.046875 31.527344 18.90625 31.433594 18.804688 C 31.339844 18.707031 31.207031 18.65625 31.035156 18.65625 C 30.859375 18.65625 30.71875 18.707031 30.621094 18.804688 C 30.523438 18.902344 30.476562 19.042969 30.476562 19.21875 C 30.476562 19.394531 30.523438 19.53125 30.617188 19.632812 C 30.710938 19.730469 30.839844 19.78125 31 19.78125 C 31.1875 19.78125 31.332031 19.734375 31.425781 19.640625 C 31.523438 19.546875 31.574219 19.410156 31.574219 19.230469 Z M 31.574219 19.230469 "/>
<path style=" stroke:none;fill-rule:evenodd;fill:rgb(0%,29.411766%,61.56863%);fill-opacity:1;" d="M 24.632812 21.191406 C 24.863281 20.242188 25.191406 20.140625 26.015625 19.8125 C 26.421875 19.652344 26.546875 19.339844 26.546875 19.09375 C 26.546875 18.945312 26.457031 18.828125 26.367188 18.746094 C 26.277344 18.664062 26.152344 18.625 25.992188 18.625 C 25.867188 18.625 25.757812 18.648438 25.664062 18.703125 C 25.570312 18.753906 25.527344 18.8125 25.527344 18.875 C 25.527344 18.886719 25.546875 18.921875 25.585938 18.988281 C 25.625 19.054688 25.644531 19.121094 25.644531 19.191406 C 25.644531 19.285156 25.609375 19.363281 25.535156 19.417969 C 25.460938 19.476562 25.363281 19.503906 25.238281 19.503906 C 25.117188 19.503906 25.023438 19.46875 24.953125 19.394531 C 24.882812 19.324219 24.847656 19.226562 24.847656 19.101562 C 24.847656 18.496094 25.640625 18.222656 26.117188 18.222656 C 26.511719 18.222656 26.875 18.320312 27.109375 18.480469 C 27.566406 18.792969 27.578125 19.59375 27.074219 19.882812 C 26.660156 20.113281 25.484375 20.109375 25.46875 20.511719 C 25.464844 20.609375 25.496094 20.726562 25.730469 20.714844 C 25.9375 20.707031 26.835938 20.703125 26.984375 20.585938 C 27.082031 20.511719 27.144531 20.390625 27.21875 20.230469 L 27.507812 20.234375 L 27.574219 21.191406 Z M 24.632812 21.191406 "/>
<path style=" stroke:none;fill-rule:evenodd;fill:rgb(0%,29.411766%,61.56863%);fill-opacity:1;" d="M 39.664062 17.007812 C 39.6875 17.054688 39.710938 17.09375 39.734375 17.128906 C 39.761719 17.167969 39.789062 17.199219 39.824219 17.226562 C 39.875 17.273438 39.933594 17.308594 40 17.335938 C 40.066406 17.363281 40.136719 17.390625 40.210938 17.410156 C 40.367188 17.453125 40.535156 17.496094 40.71875 17.539062 C 40.898438 17.585938 41.097656 17.632812 41.316406 17.683594 C 41.453125 17.714844 41.554688 17.730469 41.621094 17.726562 C 41.6875 17.722656 41.796875 17.695312 41.945312 17.644531 L 42.347656 17.507812 C 42.394531 17.492188 42.433594 17.46875 42.464844 17.4375 C 42.496094 17.40625 42.511719 17.363281 42.515625 17.304688 C 42.519531 17.28125 42.515625 17.226562 42.503906 17.152344 C 42.496094 17.074219 42.484375 17.015625 42.476562 16.980469 L 42.632812 16.929688 L 43.171875 18.496094 L 43.019531 18.546875 C 43.003906 18.511719 42.976562 18.460938 42.945312 18.394531 C 42.914062 18.328125 42.890625 18.28125 42.867188 18.257812 C 42.832031 18.21875 42.789062 18.195312 42.75 18.1875 C 42.707031 18.183594 42.660156 18.1875 42.609375 18.203125 L 42.109375 18.375 C 42.066406 18.390625 42.027344 18.40625 41.996094 18.417969 C 41.960938 18.429688 41.9375 18.445312 41.917969 18.460938 C 41.894531 18.476562 41.867188 18.503906 41.835938 18.539062 C 41.804688 18.578125 41.761719 18.621094 41.714844 18.679688 C 41.570312 18.84375 41.433594 19 41.304688 19.152344 C 41.175781 19.300781 41.054688 19.445312 40.945312 19.578125 C 40.886719 19.648438 40.84375 19.714844 40.8125 19.777344 C 40.785156 19.835938 40.765625 19.894531 40.753906 19.953125 C 40.746094 19.996094 40.746094 20.042969 40.753906 20.097656 C 40.761719 20.152344 40.769531 20.203125 40.78125 20.246094 L 40.625 20.296875 L 40.066406 18.679688 L 40.222656 18.628906 C 40.277344 18.777344 40.324219 18.871094 40.355469 18.917969 C 40.390625 18.964844 40.425781 18.980469 40.453125 18.972656 C 40.46875 18.96875 40.492188 18.945312 40.53125 18.914062 C 40.570312 18.878906 40.625 18.820312 40.699219 18.742188 C 40.769531 18.664062 40.867188 18.558594 40.988281 18.421875 C 41.113281 18.28125 41.253906 18.117188 41.414062 17.925781 C 40.925781 17.808594 40.585938 17.734375 40.394531 17.691406 C 40.203125 17.652344 40.089844 17.640625 40.054688 17.652344 C 40.007812 17.667969 39.984375 17.707031 39.976562 17.769531 C 39.972656 17.832031 39.988281 17.929688 40.023438 18.054688 L 39.871094 18.109375 L 39.507812 17.0625 Z M 29.015625 40.476562 C 28.976562 40.488281 28.917969 40.511719 28.847656 40.539062 C 28.773438 40.566406 28.714844 40.605469 28.671875 40.652344 C 28.625 40.695312 28.597656 40.765625 28.59375 40.859375 C 28.589844 40.953125 28.605469 41.089844 28.640625 41.265625 L 28.855469 42.355469 C 28.917969 42.671875 28.859375 42.953125 28.679688 43.1875 C 28.5 43.425781 28.226562 43.582031 27.867188 43.652344 C 27.449219 43.730469 27.105469 43.699219 26.839844 43.558594 C 26.574219 43.414062 26.40625 43.175781 26.339844 42.839844 L 26.046875 41.34375 C 26.039062 41.296875 26.019531 41.253906 25.996094 41.222656 C 25.96875 41.195312 25.925781 41.171875 25.871094 41.152344 C 25.832031 41.140625 25.785156 41.136719 25.730469 41.136719 C 25.675781 41.132812 25.628906 41.136719 25.597656 41.136719 L 25.566406 40.976562 L 27.101562 40.679688 L 27.132812 40.839844 C 27.089844 40.851562 27.046875 40.863281 27 40.878906 C 26.957031 40.898438 26.914062 40.917969 26.867188 40.941406 C 26.820312 40.96875 26.789062 41.003906 26.777344 41.042969 C 26.769531 41.085938 26.769531 41.132812 26.777344 41.179688 L 27.066406 42.65625 C 27.125 42.945312 27.230469 43.144531 27.382812 43.25 C 27.539062 43.355469 27.738281 43.386719 27.984375 43.339844 C 28.226562 43.292969 28.402344 43.183594 28.511719 43.011719 C 28.617188 42.839844 28.644531 42.609375 28.589844 42.328125 L 28.394531 41.335938 C 28.359375 41.160156 28.324219 41.03125 28.28125 40.949219 C 28.242188 40.867188 28.191406 40.808594 28.132812 40.78125 C 28.089844 40.757812 28.023438 40.742188 27.929688 40.734375 C 27.835938 40.726562 27.769531 40.726562 27.734375 40.726562 L 27.699219 40.5625 L 28.984375 40.3125 Z M 32.796875 38.8125 C 32.761719 38.832031 32.714844 38.863281 32.652344 38.90625 C 32.59375 38.945312 32.542969 38.996094 32.507812 39.0625 C 32.476562 39.117188 32.472656 39.191406 32.492188 39.285156 C 32.507812 39.378906 32.558594 39.503906 32.632812 39.667969 L 33.535156 41.601562 L 33.1875 41.761719 L 30.53125 40.445312 L 31.121094 41.71875 C 31.195312 41.875 31.261719 41.988281 31.320312 42.0625 C 31.378906 42.132812 31.441406 42.179688 31.507812 42.195312 C 31.554688 42.207031 31.621094 42.207031 31.707031 42.191406 C 31.792969 42.179688 31.859375 42.167969 31.90625 42.152344 L 31.976562 42.300781 L 30.800781 42.84375 L 30.730469 42.695312 C 30.78125 42.667969 30.832031 42.632812 30.890625 42.589844 C 30.949219 42.542969 30.992188 42.496094 31.019531 42.445312 C 31.054688 42.386719 31.0625 42.316406 31.046875 42.230469 C 31.03125 42.148438 30.980469 42.019531 30.898438 41.84375 L 30.300781 40.558594 C 30.269531 40.496094 30.234375 40.441406 30.1875 40.394531 C 30.140625 40.34375 30.089844 40.3125 30.027344 40.289062 C 29.960938 40.265625 29.894531 40.257812 29.828125 40.257812 C 29.757812 40.257812 29.683594 40.269531 29.601562 40.289062 L 29.535156 40.140625 L 30.558594 39.667969 L 32.886719 40.820312 L 32.410156 39.792969 C 32.332031 39.628906 32.265625 39.515625 32.207031 39.445312 C 32.148438 39.375 32.085938 39.332031 32.019531 39.316406 C 31.96875 39.300781 31.902344 39.304688 31.820312 39.316406 C 31.738281 39.328125 31.671875 39.339844 31.625 39.355469 L 31.554688 39.210938 L 32.730469 38.667969 Z M 36.214844 39.898438 L 34.847656 40.832031 L 34.753906 40.699219 C 34.785156 40.675781 34.828125 40.640625 34.886719 40.59375 C 34.945312 40.546875 34.980469 40.511719 34.996094 40.488281 C 35.027344 40.441406 35.042969 40.398438 35.039062 40.359375 C 35.035156 40.320312 35.015625 40.277344 34.984375 40.234375 L 33.78125 38.492188 C 33.757812 38.453125 33.722656 38.421875 33.6875 38.402344 C 33.652344 38.382812 33.605469 38.378906 33.550781 38.390625 C 33.515625 38.398438 33.464844 38.414062 33.402344 38.441406 C 33.339844 38.464844 33.285156 38.488281 33.246094 38.511719 L 33.152344 38.375 L 34.519531 37.441406 L 34.609375 37.578125 C 34.578125 37.605469 34.539062 37.640625 34.492188 37.679688 C 34.445312 37.722656 34.40625 37.761719 34.378906 37.796875 C 34.34375 37.84375 34.328125 37.886719 34.335938 37.929688 C 34.34375 37.972656 34.359375 38.011719 34.386719 38.054688 L 35.589844 39.792969 C 35.617188 39.835938 35.652344 39.867188 35.6875 39.886719 C 35.722656 39.902344 35.769531 39.90625 35.828125 39.894531 C 35.859375 39.890625 35.90625 39.871094 35.96875 39.84375 C 36.03125 39.816406 36.082031 39.789062 36.121094 39.765625 Z M 37.484375 34.8125 C 37.457031 34.847656 37.429688 34.882812 37.410156 34.921875 C 37.386719 34.960938 37.371094 35.003906 37.355469 35.054688 C 37.339844 35.125 37.332031 35.183594 37.335938 35.234375 C 37.339844 35.285156 37.355469 35.347656 37.382812 35.421875 C 37.421875 35.519531 37.476562 35.664062 37.550781 35.851562 C 37.625 36.039062 37.710938 36.25 37.808594 36.492188 C 37.894531 36.703125 37.988281 36.9375 38.09375 37.191406 C 38.195312 37.445312 38.296875 37.691406 38.394531 37.921875 L 38.089844 38.21875 C 37.609375 38.015625 37.125 37.804688 36.628906 37.59375 C 36.132812 37.382812 35.785156 37.238281 35.589844 37.160156 C 35.519531 37.132812 35.457031 37.117188 35.410156 37.113281 C 35.367188 37.109375 35.304688 37.117188 35.230469 37.132812 C 35.179688 37.148438 35.136719 37.164062 35.101562 37.183594 C 35.066406 37.203125 35.027344 37.226562 34.976562 37.265625 L 34.863281 37.148438 L 36.019531 36.015625 L 36.128906 36.128906 C 36.035156 36.246094 35.976562 36.332031 35.953125 36.386719 C 35.929688 36.4375 35.925781 36.472656 35.949219 36.496094 C 35.960938 36.507812 35.972656 36.515625 35.988281 36.527344 C 36.003906 36.535156 36.027344 36.546875 36.054688 36.5625 C 36.171875 36.617188 36.375 36.703125 36.65625 36.820312 C 36.9375 36.9375 37.363281 37.117188 37.933594 37.363281 C 37.789062 37.015625 37.664062 36.722656 37.5625 36.484375 C 37.457031 36.25 37.367188 36.039062 37.289062 35.855469 C 37.25 35.769531 37.210938 35.6875 37.171875 35.617188 C 37.136719 35.542969 37.101562 35.496094 37.074219 35.464844 C 37.042969 35.433594 36.992188 35.429688 36.925781 35.453125 C 36.855469 35.480469 36.753906 35.546875 36.621094 35.660156 L 36.5 35.542969 L 37.367188 34.691406 Z M 39.574219 32.566406 L 39.488281 32.703125 C 39.371094 32.679688 39.234375 32.679688 39.082031 32.703125 C 38.929688 32.726562 38.820312 32.777344 38.75 32.847656 C 38.71875 32.878906 38.683594 32.925781 38.644531 32.988281 C 38.601562 33.050781 38.566406 33.101562 38.542969 33.144531 L 38.316406 33.511719 L 39.304688 34.117188 L 39.464844 33.855469 C 39.503906 33.789062 39.535156 33.722656 39.550781 33.660156 C 39.570312 33.597656 39.570312 33.53125 39.550781 33.457031 C 39.542969 33.414062 39.511719 33.355469 39.457031 33.285156 C 39.40625 33.214844 39.355469 33.160156 39.308594 33.121094 L 39.394531 32.980469 L 40.460938 33.628906 L 40.375 33.769531 C 40.320312 33.746094 40.246094 33.726562 40.152344 33.707031 C 40.058594 33.691406 39.988281 33.6875 39.941406 33.695312 C 39.875 33.707031 39.816406 33.738281 39.765625 33.78125 C 39.714844 33.824219 39.671875 33.882812 39.625 33.953125 L 39.464844 34.214844 L 40.203125 34.664062 C 40.28125 34.710938 40.34375 34.742188 40.398438 34.757812 C 40.449219 34.777344 40.496094 34.773438 40.539062 34.757812 C 40.582031 34.742188 40.621094 34.710938 40.660156 34.664062 C 40.699219 34.617188 40.746094 34.546875 40.804688 34.457031 C 40.828125 34.414062 40.859375 34.363281 40.894531 34.304688 C 40.929688 34.246094 40.957031 34.191406 40.976562 34.144531 C 41.003906 34.089844 41.023438 34.039062 41.039062 33.988281 C 41.054688 33.9375 41.054688 33.894531 41.046875 33.859375 C 41.023438 33.765625 40.972656 33.644531 40.894531 33.5 C 40.816406 33.351562 40.757812 33.25 40.710938 33.191406 L 40.792969 33.058594 L 41.558594 33.59375 L 40.085938 35.980469 L 39.945312 35.894531 C 39.964844 35.859375 39.988281 35.8125 40.015625 35.75 C 40.042969 35.6875 40.058594 35.644531 40.066406 35.613281 C 40.074219 35.554688 40.070312 35.511719 40.050781 35.476562 C 40.03125 35.441406 39.996094 35.414062 39.953125 35.382812 L 38.148438 34.285156 C 38.105469 34.257812 38.066406 34.242188 38.027344 34.238281 C 37.992188 34.234375 37.949219 34.253906 37.894531 34.289062 C 37.859375 34.308594 37.820312 34.347656 37.773438 34.394531 C 37.726562 34.445312 37.691406 34.484375 37.671875 34.507812 L 37.53125 34.421875 L 38.921875 32.167969 Z M 40.757812 29.882812 C 40.570312 29.808594 40.414062 29.808594 40.289062 29.878906 C 40.160156 29.949219 40.058594 30.082031 39.984375 30.273438 L 39.921875 30.429688 L 41.09375 30.886719 L 41.152344 30.738281 C 41.230469 30.542969 41.238281 30.375 41.175781 30.230469 C 41.117188 30.082031 40.976562 29.96875 40.757812 29.882812 Z M 43.355469 29.359375 L 42.9375 30.421875 C 42.582031 30.496094 42.296875 30.5625 42.082031 30.621094 C 41.867188 30.675781 41.613281 30.753906 41.324219 30.847656 L 41.28125 30.957031 L 42.125 31.285156 C 42.171875 31.304688 42.214844 31.3125 42.257812 31.304688 C 42.296875 31.300781 42.335938 31.277344 42.378906 31.238281 C 42.398438 31.21875 42.425781 31.183594 42.457031 31.132812 C 42.488281 31.085938 42.515625 31.042969 42.53125 31.003906 L 42.6875 31.066406 L 42.101562 32.546875 L 41.949219 32.488281 C 41.960938 32.449219 41.976562 32.398438 41.992188 32.332031 C 42.007812 32.265625 42.019531 32.21875 42.019531 32.1875 C 42.015625 32.132812 42.003906 32.085938 41.976562 32.058594 C 41.953125 32.027344 41.914062 32.003906 41.867188 31.984375 L 39.894531 31.21875 C 39.847656 31.199219 39.804688 31.191406 39.769531 31.195312 C 39.730469 31.199219 39.691406 31.222656 39.644531 31.265625 C 39.609375 31.300781 39.578125 31.347656 39.542969 31.398438 C 39.507812 31.453125 39.480469 31.492188 39.464844 31.523438 L 39.3125 31.464844 L 39.925781 29.902344 C 40.0625 29.554688 40.21875 29.3125 40.402344 29.171875 C 40.582031 29.035156 40.78125 29.007812 41.003906 29.097656 C 41.199219 29.171875 41.335938 29.289062 41.410156 29.445312 C 41.484375 29.605469 41.511719 29.8125 41.488281 30.066406 C 41.640625 30.019531 41.8125 29.96875 42.011719 29.910156 C 42.210938 29.851562 42.414062 29.789062 42.625 29.722656 C 42.691406 29.703125 42.773438 29.671875 42.875 29.628906 C 42.976562 29.589844 43.046875 29.546875 43.085938 29.496094 C 43.105469 29.472656 43.128906 29.4375 43.152344 29.390625 C 43.179688 29.347656 43.195312 29.316406 43.203125 29.296875 Z M 43.769531 27.585938 C 43.746094 27.765625 43.699219 27.933594 43.632812 28.082031 C 43.566406 28.230469 43.492188 28.355469 43.417969 28.457031 L 43.542969 28.621094 L 43.519531 28.800781 L 42.445312 28.679688 L 42.46875 28.5 C 42.574219 28.472656 42.691406 28.4375 42.8125 28.390625 C 42.933594 28.34375 43.042969 28.285156 43.144531 28.214844 C 43.25 28.144531 43.335938 28.058594 43.410156 27.960938 C 43.484375 27.863281 43.527344 27.746094 43.546875 27.605469 C 43.574219 27.417969 43.546875 27.265625 43.46875 27.152344 C 43.390625 27.039062 43.28125 26.972656 43.140625 26.953125 C 43.023438 26.9375 42.921875 26.96875 42.832031 27.042969 C 42.742188 27.117188 42.65625 27.242188 42.574219 27.410156 C 42.519531 27.523438 42.46875 27.625 42.421875 27.71875 C 42.378906 27.8125 42.332031 27.898438 42.285156 27.980469 C 42.179688 28.167969 42.046875 28.300781 41.882812 28.378906 C 41.722656 28.453125 41.550781 28.480469 41.367188 28.457031 C 41.25 28.441406 41.144531 28.398438 41.042969 28.335938 C 40.941406 28.269531 40.855469 28.183594 40.785156 28.078125 C 40.71875 27.972656 40.667969 27.847656 40.640625 27.699219 C 40.609375 27.546875 40.605469 27.390625 40.628906 27.222656 C 40.648438 27.058594 40.695312 26.90625 40.761719 26.769531 C 40.824219 26.632812 40.886719 26.527344 40.945312 26.453125 L 40.835938 26.308594 L 40.863281 26.128906 L 41.875 26.25 L 41.851562 26.425781 C 41.734375 26.453125 41.617188 26.488281 41.496094 26.527344 C 41.375 26.570312 41.273438 26.617188 41.1875 26.667969 C 41.097656 26.726562 41.023438 26.796875 40.960938 26.878906 C 40.902344 26.957031 40.863281 27.058594 40.847656 27.179688 C 40.828125 27.328125 40.851562 27.457031 40.925781 27.5625 C 40.996094 27.671875 41.097656 27.730469 41.222656 27.75 C 41.339844 27.765625 41.441406 27.738281 41.53125 27.664062 C 41.617188 27.59375 41.699219 27.472656 41.78125 27.304688 C 41.832031 27.207031 41.878906 27.109375 41.929688 27.003906 C 41.980469 26.902344 42.027344 26.8125 42.070312 26.734375 C 42.175781 26.542969 42.304688 26.40625 42.457031 26.316406 C 42.609375 26.234375 42.785156 26.203125 42.992188 26.230469 C 43.121094 26.25 43.238281 26.296875 43.351562 26.371094 C 43.464844 26.445312 43.550781 26.542969 43.617188 26.652344 C 43.691406 26.777344 43.742188 26.914062 43.769531 27.066406 C 43.796875 27.21875 43.796875 27.390625 43.769531 27.585938 Z M 43.96875 23.898438 L 43.921875 25.546875 L 43.757812 25.539062 C 43.757812 25.503906 43.753906 25.445312 43.75 25.375 C 43.746094 25.300781 43.742188 25.25 43.730469 25.222656 C 43.710938 25.167969 43.683594 25.132812 43.648438 25.113281 C 43.617188 25.09375 43.570312 25.082031 43.519531 25.082031 L 41.394531 25.023438 C 41.34375 25.023438 41.300781 25.03125 41.265625 25.046875 C 41.226562 25.066406 41.199219 25.097656 41.171875 25.152344 C 41.160156 25.183594 41.144531 25.234375 41.125 25.300781 C 41.109375 25.363281 41.097656 25.421875 41.089844 25.46875 L 40.925781 25.464844 L 40.972656 23.816406 L 41.136719 23.820312 C 41.140625 23.863281 41.144531 23.914062 41.148438 23.976562 C 41.15625 24.039062 41.164062 24.09375 41.179688 24.136719 C 41.195312 24.191406 41.222656 24.230469 41.261719 24.25 C 41.300781 24.265625 41.34375 24.277344 41.390625 24.277344 L 43.515625 24.335938 C 43.566406 24.339844 43.609375 24.332031 43.644531 24.3125 C 43.683594 24.292969 43.714844 24.257812 43.738281 24.207031 C 43.75 24.179688 43.765625 24.128906 43.777344 24.0625 C 43.792969 23.996094 43.800781 23.9375 43.804688 23.894531 Z M 41.503906 20.503906 L 41.523438 20.667969 C 41.402344 20.726562 41.277344 20.8125 41.144531 20.925781 C 41.011719 21.039062 40.945312 21.136719 40.941406 21.21875 C 40.941406 21.261719 40.945312 21.316406 40.949219 21.382812 C 40.953125 21.449219 40.957031 21.503906 40.964844 21.554688 L 40.976562 21.652344 L 43.308594 21.359375 C 43.359375 21.355469 43.402344 21.339844 43.4375 21.316406 C 43.472656 21.296875 43.5 21.253906 43.515625 21.199219 C 43.523438 21.167969 43.53125 21.117188 43.535156 21.046875 C 43.539062 20.976562 43.542969 20.921875 43.542969 20.871094 L 43.707031 20.851562 L 43.910156 22.496094 L 43.75 22.515625 C 43.738281 22.476562 43.726562 22.421875 43.710938 22.347656 C 43.691406 22.277344 43.675781 22.230469 43.664062 22.203125 C 43.632812 22.152344 43.597656 22.121094 43.558594 22.109375 C 43.519531 22.09375 43.472656 22.089844 43.421875 22.097656 L 41.070312 22.390625 L 41.082031 22.488281 C 41.085938 22.535156 41.097656 22.589844 41.109375 22.65625 C 41.121094 22.71875 41.132812 22.773438 41.144531 22.816406 C 41.164062 22.894531 41.253906 22.976562 41.410156 23.050781 C 41.566406 23.128906 41.710938 23.179688 41.84375 23.207031 L 41.863281 23.371094 L 41.011719 23.476562 L 40.652344 20.609375 Z M 41.503906 20.503906 "/>
<path style=" stroke:none;fill-rule:evenodd;fill:rgb(0%,29.411766%,61.56863%);fill-opacity:1;" d="M 4.878906 18.101562 C 4.949219 17.898438 5.046875 17.714844 5.175781 17.554688 C 5.304688 17.398438 5.457031 17.273438 5.628906 17.183594 C 5.800781 17.09375 5.992188 17.042969 6.199219 17.03125 C 6.410156 17.015625 6.628906 17.046875 6.851562 17.121094 C 7.070312 17.195312 7.261719 17.300781 7.425781 17.441406 C 7.585938 17.578125 7.710938 17.742188 7.804688 17.925781 C 7.890625 18.105469 7.941406 18.304688 7.949219 18.519531 C 7.960938 18.734375 7.929688 18.949219 7.855469 19.167969 C 7.804688 19.324219 7.734375 19.460938 7.652344 19.574219 C 7.570312 19.691406 7.488281 19.785156 7.410156 19.859375 L 7.480469 20.019531 L 7.421875 20.191406 L 6.378906 19.859375 L 6.4375 19.683594 C 6.789062 19.691406 7.0625 19.648438 7.261719 19.558594 C 7.457031 19.472656 7.585938 19.328125 7.65625 19.125 C 7.738281 18.875 7.691406 18.648438 7.515625 18.445312 C 7.339844 18.242188 7.050781 18.074219 6.648438 17.9375 C 6.421875 17.863281 6.222656 17.820312 6.046875 17.8125 C 5.871094 17.800781 5.722656 17.816406 5.601562 17.855469 C 5.472656 17.898438 5.367188 17.964844 5.285156 18.054688 C 5.203125 18.140625 5.140625 18.25 5.097656 18.378906 C 5.035156 18.5625 5.027344 18.746094 5.082031 18.921875 C 5.132812 19.101562 5.242188 19.289062 5.410156 19.476562 L 5.246094 19.613281 C 5.148438 19.515625 5.066406 19.414062 4.996094 19.3125 C 4.929688 19.207031 4.878906 19.097656 4.84375 18.976562 C 4.804688 18.847656 4.789062 18.714844 4.789062 18.574219 C 4.789062 18.433594 4.820312 18.277344 4.878906 18.101562 Z M 4.828125 27.367188 C 4.964844 27.414062 5.113281 27.441406 5.277344 27.449219 C 5.441406 27.457031 5.625 27.449219 5.828125 27.421875 C 6.003906 27.402344 6.167969 27.367188 6.328125 27.324219 C 6.488281 27.28125 6.628906 27.21875 6.75 27.144531 C 6.871094 27.070312 6.960938 26.976562 7.027344 26.871094 C 7.089844 26.761719 7.113281 26.632812 7.097656 26.488281 C 7.0625 26.234375 6.921875 26.058594 6.664062 25.957031 C 6.40625 25.855469 6.058594 25.832031 5.621094 25.886719 C 5.433594 25.910156 5.261719 25.945312 5.097656 25.996094 C 4.9375 26.046875 4.796875 26.109375 4.683594 26.183594 C 4.566406 26.261719 4.476562 26.351562 4.421875 26.457031 C 4.363281 26.5625 4.34375 26.683594 4.359375 26.824219 C 4.378906 26.964844 4.429688 27.078125 4.511719 27.167969 C 4.59375 27.257812 4.699219 27.324219 4.828125 27.367188 Z M 7.027344 27.636719 C 6.910156 27.800781 6.761719 27.9375 6.582031 28.042969 C 6.402344 28.152344 6.191406 28.222656 5.949219 28.253906 C 5.734375 28.28125 5.523438 28.269531 5.316406 28.222656 C 5.113281 28.171875 4.929688 28.089844 4.773438 27.972656 C 4.609375 27.847656 4.472656 27.691406 4.367188 27.511719 C 4.261719 27.328125 4.191406 27.101562 4.15625 26.835938 C 4.128906 26.621094 4.140625 26.414062 4.1875 26.210938 C 4.234375 26.011719 4.316406 25.832031 4.433594 25.667969 C 4.550781 25.507812 4.695312 25.371094 4.875 25.265625 C 5.054688 25.15625 5.261719 25.085938 5.496094 25.058594 C 5.738281 25.027344 5.964844 25.042969 6.171875 25.097656 C 6.378906 25.15625 6.5625 25.25 6.722656 25.378906 C 6.878906 25.503906 7.007812 25.660156 7.105469 25.847656 C 7.207031 26.035156 7.269531 26.238281 7.296875 26.460938 C 7.324219 26.683594 7.316406 26.894531 7.265625 27.097656 C 7.21875 27.300781 7.136719 27.480469 7.027344 27.636719 Z M 8.640625 31.742188 C 8.621094 31.707031 8.59375 31.660156 8.554688 31.597656 C 8.519531 31.53125 8.46875 31.480469 8.40625 31.441406 C 8.351562 31.40625 8.277344 31.398438 8.183594 31.410156 C 8.089844 31.425781 7.960938 31.464844 7.792969 31.527344 L 5.792969 32.304688 L 5.65625 31.953125 L 7.136719 29.394531 L 5.828125 29.90625 C 5.664062 29.96875 5.542969 30.027344 5.46875 30.082031 C 5.390625 30.136719 5.34375 30.195312 5.324219 30.257812 C 5.308594 30.304688 5.304688 30.371094 5.3125 30.457031 C 5.320312 30.542969 5.332031 30.609375 5.339844 30.65625 L 5.1875 30.71875 L 4.714844 29.519531 L 4.867188 29.460938 C 4.890625 29.507812 4.925781 29.5625 4.964844 29.625 C 5.007812 29.683594 5.050781 29.730469 5.101562 29.761719 C 5.160156 29.796875 5.230469 29.808594 5.316406 29.800781 C 5.398438 29.789062 5.53125 29.746094 5.714844 29.675781 L 7.039062 29.160156 C 7.101562 29.136719 7.160156 29.101562 7.210938 29.058594 C 7.261719 29.015625 7.300781 28.964844 7.324219 28.90625 C 7.351562 28.84375 7.367188 28.777344 7.371094 28.707031 C 7.371094 28.640625 7.367188 28.5625 7.351562 28.484375 L 7.503906 28.425781 L 7.917969 29.472656 L 6.617188 31.710938 L 7.679688 31.300781 C 7.847656 31.234375 7.96875 31.175781 8.042969 31.121094 C 8.113281 31.066406 8.164062 31.007812 8.183594 30.941406 C 8.199219 30.894531 8.203125 30.828125 8.195312 30.742188 C 8.1875 30.660156 8.175781 30.59375 8.167969 30.546875 L 8.316406 30.488281 L 8.789062 31.6875 Z M 9.335938 35.855469 C 9.308594 35.820312 9.285156 35.789062 9.261719 35.765625 C 9.238281 35.738281 9.207031 35.710938 9.164062 35.675781 C 9.117188 35.636719 9.070312 35.621094 9.027344 35.628906 C 8.980469 35.636719 8.9375 35.652344 8.898438 35.679688 L 8.605469 35.863281 C 8.546875 35.902344 8.5 35.933594 8.464844 35.957031 C 8.425781 35.980469 8.382812 36.011719 8.332031 36.046875 C 8.183594 35.976562 8.007812 35.84375 7.792969 35.65625 C 7.582031 35.464844 7.417969 35.273438 7.292969 35.078125 C 7.175781 34.898438 7.09375 34.707031 7.046875 34.515625 C 7 34.320312 6.996094 34.125 7.027344 33.933594 C 7.0625 33.746094 7.136719 33.5625 7.257812 33.390625 C 7.378906 33.214844 7.542969 33.0625 7.753906 32.929688 C 7.949219 32.804688 8.152344 32.71875 8.363281 32.679688 C 8.574219 32.636719 8.777344 32.640625 8.976562 32.683594 C 9.175781 32.726562 9.363281 32.816406 9.539062 32.949219 C 9.714844 33.078125 9.871094 33.25 10.003906 33.460938 C 10.097656 33.601562 10.164062 33.746094 10.207031 33.890625 C 10.25 34.035156 10.277344 34.160156 10.285156 34.261719 L 10.453125 34.3125 L 10.554688 34.464844 L 9.640625 35.0625 L 9.539062 34.910156 C 9.761719 34.640625 9.898438 34.402344 9.949219 34.191406 C 10.003906 33.984375 9.972656 33.78125 9.847656 33.589844 C 9.703125 33.363281 9.492188 33.253906 9.210938 33.257812 C 8.933594 33.261719 8.621094 33.375 8.269531 33.597656 C 7.898438 33.832031 7.644531 34.078125 7.511719 34.332031 C 7.382812 34.585938 7.386719 34.824219 7.527344 35.046875 C 7.59375 35.152344 7.671875 35.234375 7.753906 35.292969 C 7.835938 35.355469 7.914062 35.394531 7.984375 35.414062 L 8.496094 35.085938 C 8.539062 35.058594 8.570312 35.03125 8.585938 34.996094 C 8.605469 34.960938 8.613281 34.914062 8.605469 34.855469 C 8.597656 34.808594 8.582031 34.757812 8.558594 34.695312 C 8.535156 34.636719 8.515625 34.589844 8.496094 34.550781 L 8.636719 34.460938 L 9.476562 35.765625 Z M 10.980469 38.441406 C 11.113281 38.390625 11.25 38.320312 11.378906 38.222656 C 11.515625 38.125 11.652344 38 11.792969 37.855469 C 11.914062 37.726562 12.019531 37.597656 12.117188 37.464844 C 12.214844 37.328125 12.285156 37.191406 12.332031 37.058594 C 12.375 36.925781 12.386719 36.796875 12.371094 36.671875 C 12.351562 36.546875 12.289062 36.433594 12.179688 36.332031 C 11.996094 36.15625 11.773438 36.109375 11.507812 36.191406 C 11.246094 36.277344 10.960938 36.476562 10.65625 36.796875 C 10.523438 36.929688 10.414062 37.070312 10.316406 37.207031 C 10.222656 37.347656 10.15625 37.484375 10.113281 37.617188 C 10.074219 37.75 10.0625 37.875 10.085938 37.992188 C 10.109375 38.109375 10.171875 38.21875 10.273438 38.316406 C 10.375 38.410156 10.484375 38.46875 10.605469 38.488281 C 10.726562 38.503906 10.851562 38.488281 10.980469 38.441406 Z M 12.859375 37.265625 C 12.871094 37.464844 12.84375 37.664062 12.773438 37.863281 C 12.703125 38.058594 12.582031 38.246094 12.414062 38.421875 C 12.171875 38.671875 11.898438 38.832031 11.589844 38.902344 C 11.285156 38.972656 10.976562 38.941406 10.664062 38.804688 C 10.550781 38.925781 10.488281 39.066406 10.472656 39.222656 C 10.457031 39.378906 10.5 39.5 10.597656 39.59375 C 10.65625 39.648438 10.710938 39.695312 10.761719 39.730469 C 10.8125 39.765625 10.859375 39.792969 10.902344 39.820312 L 10.777344 39.953125 C 10.695312 39.921875 10.585938 39.863281 10.449219 39.78125 C 10.308594 39.695312 10.179688 39.59375 10.054688 39.476562 C 9.882812 39.3125 9.789062 39.128906 9.777344 38.921875 C 9.765625 38.714844 9.839844 38.511719 10 38.316406 C 9.871094 38.167969 9.769531 38.003906 9.699219 37.828125 C 9.632812 37.65625 9.59375 37.472656 9.59375 37.289062 C 9.59375 37.105469 9.628906 36.921875 9.699219 36.738281 C 9.769531 36.558594 9.878906 36.386719 10.03125 36.230469 C 10.199219 36.054688 10.382812 35.921875 10.582031 35.835938 C 10.78125 35.75 10.980469 35.707031 11.1875 35.707031 C 11.386719 35.703125 11.585938 35.746094 11.78125 35.828125 C 11.976562 35.910156 12.15625 36.03125 12.320312 36.183594 C 12.484375 36.339844 12.609375 36.507812 12.699219 36.695312 C 12.792969 36.882812 12.84375 37.074219 12.859375 37.265625 Z M 13.707031 41.085938 L 12.3125 40.199219 L 12.398438 40.058594 C 12.433594 40.078125 12.484375 40.105469 12.546875 40.140625 C 12.613281 40.175781 12.660156 40.195312 12.691406 40.199219 C 12.746094 40.210938 12.789062 40.207031 12.824219 40.1875 C 12.859375 40.167969 12.890625 40.136719 12.917969 40.089844 L 14.066406 38.3125 C 14.09375 38.269531 14.109375 38.230469 14.113281 38.191406 C 14.117188 38.148438 14.101562 38.105469 14.070312 38.058594 C 14.050781 38.027344 14.015625 37.988281 13.96875 37.941406 C 13.921875 37.894531 13.878906 37.855469 13.839844 37.824219 L 13.929688 37.6875 L 15.324219 38.578125 L 15.234375 38.714844 C 15.199219 38.695312 15.152344 38.671875 15.09375 38.644531 C 15.035156 38.617188 14.984375 38.597656 14.941406 38.585938 C 14.886719 38.574219 14.839844 38.578125 14.800781 38.597656 C 14.765625 38.621094 14.734375 38.652344 14.707031 38.695312 L 13.5625 40.472656 C 13.535156 40.515625 13.519531 40.558594 13.515625 40.597656 C 13.511719 40.636719 13.527344 40.683594 13.558594 40.730469 C 13.578125 40.757812 13.613281 40.792969 13.664062 40.839844 C 13.714844 40.886719 13.757812 40.921875 13.796875 40.949219 Z M 19.007812 40.511719 C 18.972656 40.5 18.917969 40.484375 18.847656 40.464844 C 18.773438 40.445312 18.703125 40.441406 18.632812 40.457031 C 18.570312 40.472656 18.507812 40.515625 18.449219 40.589844 C 18.390625 40.664062 18.328125 40.785156 18.253906 40.945312 L 17.371094 42.894531 L 17.023438 42.738281 L 16.285156 39.875 L 15.707031 41.152344 C 15.632812 41.3125 15.589844 41.4375 15.574219 41.527344 C 15.558594 41.621094 15.566406 41.695312 15.59375 41.753906 C 15.617188 41.800781 15.660156 41.847656 15.726562 41.90625 C 15.792969 41.960938 15.847656 42 15.886719 42.03125 L 15.820312 42.179688 L 14.640625 41.652344 L 14.707031 41.5 C 14.761719 41.519531 14.820312 41.535156 14.894531 41.550781 C 14.964844 41.566406 15.03125 41.566406 15.085938 41.554688 C 15.152344 41.539062 15.214844 41.5 15.265625 41.433594 C 15.316406 41.367188 15.382812 41.246094 15.464844 41.070312 L 16.046875 39.777344 C 16.078125 39.714844 16.09375 39.648438 16.101562 39.585938 C 16.105469 39.519531 16.097656 39.457031 16.074219 39.394531 C 16.050781 39.332031 16.015625 39.277344 15.96875 39.222656 C 15.921875 39.171875 15.863281 39.125 15.796875 39.078125 L 15.863281 38.929688 L 16.894531 39.390625 L 17.542969 41.894531 L 18.011719 40.863281 C 18.085938 40.699219 18.128906 40.570312 18.144531 40.480469 C 18.160156 40.390625 18.152344 40.316406 18.121094 40.257812 C 18.097656 40.210938 18.050781 40.160156 17.988281 40.105469 C 17.925781 40.050781 17.871094 40.011719 17.832031 39.984375 L 17.894531 39.839844 L 19.074219 40.367188 Z M 22.410156 42.726562 C 22.363281 42.722656 22.320312 42.71875 22.289062 42.71875 C 22.253906 42.71875 22.210938 42.722656 22.15625 42.726562 C 22.097656 42.734375 22.054688 42.757812 22.027344 42.796875 C 22.003906 42.835938 21.984375 42.878906 21.976562 42.921875 L 21.914062 43.265625 C 21.902344 43.332031 21.894531 43.386719 21.886719 43.429688 C 21.878906 43.472656 21.875 43.527344 21.863281 43.589844 C 21.710938 43.648438 21.492188 43.6875 21.207031 43.710938 C 20.925781 43.734375 20.667969 43.726562 20.441406 43.6875 C 20.230469 43.648438 20.035156 43.582031 19.859375 43.480469 C 19.683594 43.382812 19.539062 43.257812 19.421875 43.101562 C 19.300781 42.949219 19.21875 42.769531 19.171875 42.5625 C 19.128906 42.359375 19.125 42.132812 19.171875 41.886719 C 19.214844 41.660156 19.289062 41.453125 19.402344 41.273438 C 19.511719 41.09375 19.652344 40.945312 19.824219 40.832031 C 19.988281 40.714844 20.183594 40.640625 20.398438 40.601562 C 20.617188 40.5625 20.847656 40.5625 21.09375 40.609375 C 21.261719 40.636719 21.414062 40.6875 21.546875 40.753906 C 21.683594 40.820312 21.792969 40.886719 21.878906 40.949219 L 22.027344 40.859375 L 22.207031 40.890625 L 22.027344 41.964844 L 21.84375 41.933594 C 21.800781 41.589844 21.714844 41.328125 21.597656 41.144531 C 21.480469 40.964844 21.308594 40.851562 21.085938 40.8125 C 20.820312 40.765625 20.59375 40.84375 20.40625 41.046875 C 20.21875 41.253906 20.089844 41.558594 20.015625 41.964844 C 19.9375 42.398438 19.945312 42.75 20.042969 43.019531 C 20.140625 43.289062 20.320312 43.445312 20.578125 43.492188 C 20.703125 43.515625 20.8125 43.515625 20.914062 43.496094 C 21.015625 43.476562 21.097656 43.449219 21.160156 43.410156 L 21.265625 42.816406 C 21.277344 42.765625 21.273438 42.722656 21.261719 42.6875 C 21.25 42.648438 21.21875 42.613281 21.171875 42.578125 C 21.132812 42.550781 21.082031 42.527344 21.023438 42.503906 C 20.964844 42.480469 20.914062 42.460938 20.871094 42.449219 L 20.902344 42.289062 L 22.410156 42.5625 Z M 3.992188 24.066406 L 4.117188 22.457031 L 4.28125 22.46875 C 4.28125 22.503906 4.28125 22.554688 4.28125 22.625 C 4.28125 22.691406 4.285156 22.738281 4.296875 22.765625 C 4.3125 22.816406 4.339844 22.855469 4.371094 22.878906 C 4.40625 22.898438 4.449219 22.914062 4.5 22.917969 L 5.535156 22.996094 L 5.632812 21.722656 L 4.621094 21.644531 C 4.574219 21.640625 4.53125 21.648438 4.492188 21.664062 C 4.453125 21.683594 4.417969 21.714844 4.394531 21.761719 C 4.382812 21.789062 4.367188 21.832031 4.347656 21.894531 C 4.332031 21.960938 4.320312 22.011719 4.3125 22.050781 L 4.148438 22.039062 L 4.273438 20.429688 L 4.4375 20.445312 C 4.433594 20.480469 4.433594 20.53125 4.4375 20.597656 C 4.441406 20.667969 4.445312 20.71875 4.453125 20.75 C 4.46875 20.800781 4.496094 20.839844 4.53125 20.863281 C 4.566406 20.882812 4.609375 20.898438 4.660156 20.902344 L 6.773438 21.0625 C 6.824219 21.066406 6.867188 21.058594 6.902344 21.042969 C 6.9375 21.027344 6.96875 20.996094 6.996094 20.941406 C 7.019531 20.902344 7.039062 20.851562 7.058594 20.785156 C 7.078125 20.722656 7.09375 20.675781 7.097656 20.644531 L 7.261719 20.65625 L 7.136719 22.265625 L 6.972656 22.253906 C 6.976562 22.210938 6.972656 22.160156 6.964844 22.097656 C 6.957031 22.035156 6.949219 21.988281 6.945312 21.957031 C 6.929688 21.898438 6.902344 21.859375 6.863281 21.839844 C 6.828125 21.820312 6.785156 21.808594 6.738281 21.804688 L 5.847656 21.738281 L 5.75 23.011719 L 6.621094 23.078125 C 6.671875 23.082031 6.710938 23.074219 6.746094 23.058594 C 6.78125 23.042969 6.8125 23.007812 6.84375 22.957031 C 6.863281 22.921875 6.882812 22.875 6.902344 22.8125 C 6.921875 22.753906 6.933594 22.707031 6.941406 22.671875 L 7.105469 22.683594 L 6.984375 24.292969 L 6.820312 24.277344 C 6.820312 24.234375 6.816406 24.183594 6.8125 24.125 C 6.808594 24.070312 6.800781 24.019531 6.789062 23.972656 C 6.773438 23.917969 6.75 23.878906 6.710938 23.859375 C 6.671875 23.835938 6.632812 23.824219 6.585938 23.820312 L 4.46875 23.660156 C 4.417969 23.65625 4.371094 23.664062 4.335938 23.679688 C 4.300781 23.695312 4.265625 23.726562 4.238281 23.777344 C 4.222656 23.8125 4.207031 23.859375 4.191406 23.921875 C 4.175781 23.984375 4.164062 24.039062 4.15625 24.078125 Z M 3.992188 24.066406 "/>
</g>
</svg>
