<?xml version="1.0" encoding="UTF-8"?>
<svg xmlns="http://www.w3.org/2000/svg" xmlns:xlink="http://www.w3.org/1999/xlink" width="336px" height="111px" viewBox="0 0 337 111" version="1.1">
<g id="surface1">
<path style=" stroke:none;fill-rule:evenodd;fill:rgb(0%,29.411766%,61.56863%);fill-opacity:1;" d="M 63.648438 0 C 63.859375 0.125 63.914062 -0.105469 64.695312 0.644531 C 65.164062 1.480469 65.238281 1.460938 65.820312 2.148438 C 66.410156 2.84375 67.054688 4.738281 67.707031 6.460938 C 68.351562 8.183594 68.550781 11.632812 67.695312 13.894531 C 66.855469 16.160156 65.082031 18.476562 63.5 19.859375 C 63.109375 20.199219 61.414062 21.320312 59.609375 22.96875 C 57.519531 24.882812 55.148438 27.496094 52.257812 30.035156 C 50.847656 31.273438 48.972656 32.582031 47.660156 33.734375 C 46.21875 35.015625 44.953125 36.433594 43.84375 37.382812 C 42.515625 38.527344 41.355469 39.277344 40.863281 39.65625 C 38.140625 41.742188 34.511719 44.640625 33.476562 44.640625 C 33.476562 44.640625 37.03125 40.007812 39.679688 36.507812 C 40.828125 34.996094 41.796875 33.683594 42.242188 33.058594 C 43.445312 31.1875 45.171875 29.539062 46.4375 27.75 C 49.886719 22.875 53.039062 18.011719 56.625 12.691406 C 58.027344 10.777344 58.957031 8.863281 59.851562 6.746094 C 60.757812 4.609375 62.296875 0.0859375 63.648438 0 Z M 52.132812 75.425781 L 52.660156 78.777344 L 52.746094 78.976562 C 52.691406 80.59375 52.425781 82.4375 52.152344 83.757812 C 52.003906 84.464844 52.089844 85.046875 52.140625 85.4375 C 52.214844 86 52.734375 86.085938 53.8125 86.359375 C 54.398438 86.507812 54.671875 87.003906 55.128906 87.238281 C 55.71875 87.53125 55.910156 88.082031 55.992188 88.390625 C 56.097656 88.761719 56.414062 89.808594 56.226562 90.535156 C 55.984375 91.433594 55.453125 92.25 55.210938 92.777344 C 54.789062 93.742188 54.324219 94.3125 54.324219 94.3125 C 53.527344 95.445312 53.144531 96.003906 52.617188 97.144531 C 51.910156 98.699219 51.164062 99.714844 51.164062 99.714844 C 51.574219 100.308594 52.140625 100.160156 52.785156 100.054688 C 54.484375 99.769531 56.710938 98.277344 56.710938 98.277344 C 58.566406 96.785156 59.410156 97.25 60.230469 97.230469 C 61.023438 97.210938 62.824219 99.019531 63.3125 100.679688 C 63.828125 102.476562 62.6875 104.15625 61.890625 104.453125 C 59.722656 105.257812 57.890625 105.671875 55.707031 106.453125 C 54.128906 107.023438 52.183594 107.945312 50.605469 108.523438 C 50.363281 108.738281 48.359375 108.894531 46.996094 110.21875 C 45.808594 111.378906 42.886719 110.925781 42.316406 110.324219 C 41.25 109.179688 38.582031 106.082031 39.054688 104.421875 C 39.445312 103.058594 40.195312 100.828125 40.269531 100.433594 C 40.355469 99.949219 42.652344 96.851562 43.054688 94.449219 C 43.316406 92.863281 43.359375 91.828125 43.636719 90.855469 C 43.8125 90.199219 43.71875 89.945312 43.402344 89.53125 C 43.402344 89.53125 42.632812 89.066406 41.734375 88.539062 C 41.164062 88.210938 40.207031 88.304688 39.667969 87.882812 C 39.320312 87.605469 38.394531 86.992188 38.171875 86.707031 C 37.910156 86.339844 38.054688 85.851562 38.875 85.460938 C 39.117188 85.34375 39.605469 84.816406 39.964844 84.71875 C 40.269531 84.636719 40.648438 84.550781 40.894531 84.488281 C 41.050781 84.445312 41.449219 84.371094 41.554688 84.351562 C 43.054688 84.042969 44.699219 84.296875 44.699219 84.296875 L 44.773438 83.96875 C 44.855469 83.503906 44.953125 83.207031 44.835938 82.550781 C 44.75 82.054688 44.433594 81.125 44.339844 80.140625 C 44.253906 79.347656 44.582031 75.921875 44.972656 73.804688 L 44.972656 71.691406 L 44.984375 71.691406 L 44.984375 71.660156 L 44.203125 71.871094 C 43.445312 72.242188 42.800781 73.191406 41.859375 73.234375 C 41.859375 73.425781 40.300781 73.859375 40.300781 74.269531 L 39.65625 74.8125 L 39.519531 74.8125 C 39.457031 75.234375 39.140625 75.246094 38.992188 75.59375 C 38.6875 75.59375 33.675781 79.769531 33.675781 79.347656 C 33.613281 79.410156 33.5625 79.472656 33.519531 79.546875 C 32.539062 79.644531 31.886719 79.347656 30.957031 79.007812 C 30.957031 78.660156 30.042969 78.628906 29.691406 78.554688 L 29.398438 78.003906 L 29.367188 78.003906 C 28.445312 75.5625 29.375 73.289062 30.882812 71.488281 C 30.945312 71.488281 32.234375 70.117188 32.308594 69.914062 C 32.730469 69.585938 32.359375 69.152344 33.277344 68.339844 L 33.277344 68.328125 C 33.761719 67.988281 34.425781 67.355469 34.605469 66.761719 L 34.828125 66.414062 C 35.324219 66.023438 35.664062 65.609375 35.882812 64.839844 C 36.058594 64.667969 36.132812 64.480469 36.386719 64.40625 C 36.417969 64.277344 37.695312 63.09375 37.941406 62.828125 C 38.339844 62.363281 39.035156 61.695312 39.488281 61.253906 C 39.722656 61.253906 40.839844 59.921875 41.0625 59.675781 C 41.082031 59.675781 43.066406 56.84375 43.308594 56.535156 L 43.421875 56.386719 L 44.203125 55.742188 C 44.222656 55.265625 45.765625 54.136719 45.765625 54.105469 C 45.953125 53.902344 47.324219 52.390625 47.324219 52.378906 L 47.882812 51.808594 C 47.925781 51.542969 48.085938 51.363281 48.117188 51.101562 C 48.148438 50.847656 48.074219 50.488281 48.105469 50.234375 L 47.324219 50.234375 C 47.324219 50.605469 46.164062 51.027344 45.765625 51.027344 C 45.765625 51.078125 43.148438 52.589844 42.640625 52.589844 C 42.640625 52.78125 40.609375 54.167969 40.300781 54.167969 C 40.300781 54.304688 37.179688 55.648438 37.179688 56.167969 C 36.839844 56.472656 34.828125 57.46875 34.828125 57.519531 C 34.300781 57.5625 32.488281 58.832031 32.488281 59.148438 C 32.253906 59.285156 31.96875 59.675781 31.707031 59.675781 L 31.707031 59.730469 C 31.359375 59.910156 30.148438 60.4375 30.148438 60.703125 C 29.902344 60.820312 29.660156 61.253906 29.367188 61.253906 L 29.367188 61.273438 C 28.585938 61.898438 27.804688 62.066406 27.109375 62.828125 L 27.023438 62.828125 L 27.023438 62.914062 L 26.476562 63.304688 C 25.925781 63.855469 24.863281 64.574219 24.125 65.1875 L 23.902344 65.410156 C 23.605469 65.640625 22.34375 66.71875 22.34375 66.972656 C 22.101562 67.089844 21.867188 67.554688 21.5625 67.554688 L 21.5625 67.585938 C 20.304688 68.855469 17.304688 70.261719 16.375 71.226562 C 15.675781 71.921875 11.871094 72.125 11.015625 71.710938 C 11.015625 71.636719 9.664062 71.023438 9.457031 70.949219 C 9.457031 70.886719 7.417969 70.304688 7.113281 70.15625 C 7.113281 70.136719 2.9375 68.78125 2.433594 68.507812 C 2.433594 68.371094 0.808594 68.019531 1.179688 67.101562 L 2.042969 64.996094 C 2.527344 64.828125 3.878906 62.828125 4.386719 62.828125 L 4.386719 62.785156 C 4.6875 62.511719 6.726562 61.105469 6.726562 61.050781 C 6.96875 60.914062 8.285156 60.449219 8.285156 60.34375 L 8.71875 60.226562 L 8.71875 60.238281 C 10.394531 60.003906 27.804688 51.808594 27.804688 51.796875 C 29.40625 51.3125 31.644531 49.441406 33.277344 49.441406 L 33.277344 49.386719 C 33.65625 49.15625 37.179688 47.8125 37.179688 47.78125 C 37.632812 47.484375 41.082031 46.171875 41.082031 46.140625 C 41.4375 46.023438 43.421875 45.507812 43.421875 45.347656 C 44.550781 45.347656 45.617188 43.941406 46.542969 43.941406 L 46.542969 43.886719 C 47.007812 43.632812 47.535156 43.148438 48.105469 43.148438 L 48.105469 43.105469 C 48.433594 42.980469 48.824219 42.765625 48.832031 42.367188 L 48.886719 42.367188 L 48.886719 37.523438 C 49.136719 37.382812 51.226562 36 51.226562 35.96875 C 51.535156 35.714844 57.265625 33.027344 57.457031 33.027344 C 57.160156 32.730469 58.144531 33.1875 58.585938 33.058594 L 58.902344 33.703125 C 58.851562 33.988281 59.042969 34.222656 59.042969 34.488281 C 59.210938 34.488281 59.167969 35.4375 59.167969 35.609375 L 59.292969 35.480469 C 59.148438 35.628906 59.042969 38.714844 59.042969 39.214844 L 59.808594 38.9375 C 60.496094 39.160156 65.460938 38.535156 65.460938 38.070312 C 67.371094 38.070312 66.941406 38.082031 68.363281 38.824219 L 68.753906 39.878906 C 69.925781 42.175781 67.023438 42.90625 67.023438 43.273438 C 66.589844 43.59375 65.863281 44.605469 65.460938 44.605469 C 65.460938 44.988281 63.3125 46.964844 63.121094 46.964844 L 63.121094 47.070312 L 59.617188 48.804688 C 59.617188 48.910156 57.605469 51.132812 57.277344 51.164062 C 57.277344 51.289062 55.242188 55.300781 55.242188 57.097656 C 55.222656 57.097656 55.136719 58.589844 55.128906 58.714844 L 57.46875 57.320312 C 58.578125 57.320312 60.050781 55.109375 61.203125 55.109375 C 61.203125 54.769531 64.847656 54.664062 64.769531 54.578125 C 66.992188 55.097656 69.925781 56.621094 69.925781 59.296875 C 70.121094 59.105469 69.746094 61.359375 68.972656 61.359375 C 68.972656 61.664062 68.648438 61.792969 68.371094 62.140625 L 65.535156 66.296875 C 65.492188 66.296875 65.070312 66.972656 65.070312 67.082031 C 64.828125 67.082031 63.214844 69.164062 62.910156 69.574219 L 62.339844 70.359375 C 62.121094 70.359375 61.023438 72.21875 60.714844 72.652344 C 59.839844 73.234375 59.484375 73.679688 58.714844 74.058594 C 58.007812 74.410156 56.972656 74.484375 55.972656 74.800781 C 54.28125 75.59375 53.863281 75.433594 52.132812 75.425781 Z M 59.808594 64.40625 C 58.714844 65.695312 58.640625 66.457031 57.46875 67.28125 C 57.46875 67.746094 55.589844 68.835938 55.128906 69.046875 L 55.09375 69.089844 L 53.566406 69.121094 L 53.566406 65.007812 C 53.726562 65.007812 53.957031 64.5625 54.757812 64.246094 L 54.738281 64.296875 L 57.46875 62.40625 L 58.777344 61.835938 L 58.757812 61.835938 L 59.808594 61.253906 L 60.601562 61.253906 L 61.066406 62.046875 C 60.546875 62.660156 60.261719 63.558594 59.808594 64.40625 Z M 37.285156 70.050781 C 37.496094 68.65625 39.667969 66.214844 40.300781 65.1875 C 40.777344 64.4375 42.25 63.242188 42.640625 62.828125 L 42.652344 62.828125 C 43 62.46875 44.984375 60.660156 44.984375 60.46875 L 45.40625 60.332031 L 45.765625 60.46875 L 45.816406 61.179688 L 45.765625 63.621094 C 45.59375 64.5 45.878906 65.503906 44.234375 66.277344 C 43.925781 66.488281 43.699219 66.964844 42.640625 67.554688 C 42.609375 67.554688 41.839844 67.9375 40.988281 68.488281 C 40.4375 68.835938 39.910156 69.289062 39.277344 69.617188 C 38.65625 69.933594 38.054688 70.199219 37.582031 70.316406 C 37.304688 70.304688 37.253906 70.273438 37.285156 70.050781 Z M 146.070312 52.296875 C 147.25 50.675781 148.347656 49.335938 149.234375 47.863281 C 149.496094 47.429688 149.402344 46.449219 149.074219 46.109375 C 148.792969 45.8125 147.832031 45.898438 147.355469 46.160156 C 145.605469 47.09375 144.742188 48.816406 143.652344 50.550781 C 144.433594 51.109375 145.089844 51.585938 146.070312 52.296875 Z M 146.851562 74.609375 C 148.65625 74.503906 150.203125 73.796875 151.773438 73.097656 C 152.746094 72.675781 153.769531 72.1875 154.800781 72.113281 C 158.199219 71.871094 160.09375 75.179688 158.441406 78.332031 C 157.351562 80.394531 156.246094 82.4375 155.171875 84.488281 C 154.789062 85.21875 154.484375 85.976562 154.054688 86.953125 C 154.980469 87.417969 155.75 87.851562 156.554688 88.210938 C 157.382812 88.589844 158.25 88.886719 159.085938 89.226562 C 161.519531 90.230469 161.992188 90.789062 161.847656 92.480469 C 161.679688 94.363281 159.96875 96.246094 158.113281 96.617188 C 155.984375 97.050781 154.199219 96.449219 152.746094 94.839844 C 151.910156 93.941406 151.082031 93.054688 150.246094 92.15625 C 147.988281 94.238281 145.839844 96.171875 143.75 98.160156 C 141.851562 99.96875 138.632812 100.140625 136.601562 98.46875 C 136.472656 98.363281 136.355469 98.234375 136.242188 98.117188 C 133.679688 95.675781 133.835938 94.96875 137.042969 93.476562 C 139.289062 92.429688 141.492188 91.265625 143.644531 90.050781 C 144.476562 89.585938 145.152344 88.8125 145.914062 88.167969 C 145.628906 87.140625 145.320312 86.285156 145.152344 85.40625 C 144.824219 83.769531 145.332031 83.21875 146.957031 83.375 C 147.84375 83.472656 148.71875 83.609375 149.761719 83.738281 C 150.414062 82.085938 151.015625 80.574219 151.582031 79.15625 C 150.511719 78.003906 149.476562 77.78125 148.253906 78.195312 C 147.703125 78.375 147.050781 78.703125 146.585938 78.542969 C 144.339844 77.8125 143.414062 79.335938 142.125 80.710938 C 138.257812 84.847656 135 89.425781 131.835938 94.101562 C 130.492188 96.078125 128.964844 97.9375 127.4375 99.78125 C 126.929688 100.402344 126.191406 100.847656 125.515625 101.292969 C 124.613281 101.882812 123.746094 101.714844 123.132812 100.835938 C 122.324219 99.683594 121.480469 98.542969 120.878906 97.285156 C 120.339844 96.132812 120.378906 94.882812 121.035156 93.675781 C 122.441406 91.097656 124.1875 88.769531 126.59375 87.140625 C 130.925781 84.203125 134.375 80.480469 137.210938 76.113281 C 137.886719 75.074219 138.773438 74.1875 139.699219 73.066406 C 139.308594 72.316406 138.929688 71.511719 138.496094 70.738281 C 138.183594 70.15625 137.730469 69.640625 137.496094 69.027344 C 136.78125 67.164062 137.707031 65.683594 139.648438 65.558594 C 140.808594 65.484375 141.96875 65.621094 143.117188 65.566406 C 145.566406 65.472656 147.324219 64.097656 148.191406 61.824219 C 148.496094 61.019531 148.488281 60.363281 147.726562 59.867188 C 147.027344 59.433594 146.554688 59.816406 145.996094 60.28125 C 142.90625 62.925781 140.714844 62.914062 137.730469 60.34375 C 138.402344 59.128906 139.089844 57.921875 139.753906 56.738281 C 138.132812 55.203125 138.097656 55.160156 136.683594 56.28125 C 135.691406 57.066406 134.753906 57.507812 133.445312 56.535156 C 133.6875 55.679688 133.964844 54.832031 134.152344 53.964844 C 134.355469 53.097656 134.460938 52.222656 134.609375 51.386719 C 133.382812 50.847656 132.859375 51.617188 132.300781 52.15625 C 131.886719 52.558594 131.507812 53.035156 131.253906 53.542969 C 127.867188 60.480469 122.765625 66.222656 118.453125 72.515625 C 115.351562 77.019531 112.292969 81.558594 109.28125 86.125 C 106.902344 89.722656 104.699219 93.433594 102.273438 96.988281 C 100.21875 100 97.964844 102.855469 95.769531 105.777344 C 95.476562 106.167969 95.105469 106.503906 94.734375 106.832031 C 92.277344 108.980469 91.316406 108.671875 90.414062 105.480469 C 90.277344 105.003906 90.128906 104.507812 89.855469 104.09375 C 88.429688 101.914062 88.925781 99.8125 90.054688 97.738281 C 91.160156 95.699219 92.4375 93.742188 93.410156 91.636719 C 93.902344 90.558594 94.851562 91.222656 95.421875 90.695312 C 96.855469 89.332031 98.535156 88.167969 99.746094 86.613281 C 110.152344 73.265625 120.464844 59.847656 130.832031 46.46875 C 131.550781 45.539062 132.121094 44.671875 132.191406 43.378906 C 132.300781 41.625 133.785156 40.597656 135.144531 39.953125 C 136.1875 39.457031 136.886719 38.789062 137.570312 37.976562 C 139.585938 35.566406 141.652344 33.1875 143.652344 30.765625 C 144.035156 30.308594 144.246094 29.695312 144.804688 28.636719 C 143.078125 29.09375 141.90625 29.367188 140.757812 29.707031 C 137.351562 30.710938 133.964844 31.726562 130.578125 32.773438 C 129.714844 33.046875 128.882812 33.449219 128.035156 33.777344 C 124.421875 35.214844 120.8125 35.511719 117.292969 33.492188 C 115.128906 32.253906 114.574219 31.070312 114.949219 28.964844 C 119.519531 28.375 124.117188 28.058594 128.597656 27.125 C 133.066406 26.207031 137.582031 25.242188 142.179688 23.171875 C 139.511719 20.929688 137.160156 18.910156 134.746094 16.964844 C 133.550781 16.011719 132.867188 14.867188 133.015625 13.324219 C 133.140625 12.078125 133.890625 11.527344 135.0625 12.003906 C 137.855469 13.132812 140.789062 13.453125 143.726562 13.917969 C 145.46875 14.183594 147.242188 14.941406 148.75 15.882812 C 150.878906 17.226562 151.089844 18.632812 149.886719 21.308594 C 150.765625 21.140625 151.429688 21.078125 152.058594 20.855469 C 154.15625 20.136719 156.214844 19.257812 158.355469 18.644531 C 161.699219 17.683594 162.6875 18.855469 163.3125 21.351562 C 163.4375 21.839844 163.617188 22.304688 163.722656 22.789062 C 164.304688 25.382812 163.070312 27.253906 160.484375 27.65625 C 158.058594 28.046875 155.601562 28.320312 153.199219 28.765625 C 152.355469 28.925781 151.375 29.273438 150.816406 29.875 C 146.734375 34.222656 142.738281 38.652344 138.71875 43.0625 C 138.507812 43.296875 138.382812 43.625 138.171875 43.960938 C 138.445312 44.460938 138.675781 45.007812 139.023438 45.453125 C 140.050781 46.765625 140.660156 46.742188 141.734375 45.496094 C 142.441406 44.679688 143.140625 43.855469 143.929688 43.125 C 146.921875 40.324219 149.582031 37.308594 150.246094 33.039062 C 151.890625 32.253906 153.253906 32.941406 154.421875 33.851562 C 154.875 34.199219 155.160156 35.226562 155 35.796875 C 154.570312 37.457031 153.863281 39.042969 153.253906 40.714844 C 154.757812 42.113281 154.960938 42.195312 156.4375 41.066406 C 157.542969 40.21875 158.652344 39.277344 159.460938 38.15625 C 160.136719 37.226562 160.84375 37.109375 161.785156 37.289062 C 163.523438 37.617188 164.851562 39.097656 165.292969 41.074219 C 165.714844 42.9375 164.851562 44.101562 163.355469 44.957031 C 161.910156 45.78125 160.539062 46.765625 159.019531 47.367188 C 155.972656 48.605469 153.894531 50.929688 151.867188 53.351562 C 151.65625 53.597656 151.5625 53.933594 151.398438 54.285156 C 152.257812 55.363281 153.179688 55.40625 154.136719 54.539062 C 155 53.777344 155.761719 52.855469 156.6875 52.179688 C 157.53125 51.566406 158.503906 50.984375 159.503906 50.761719 C 161.035156 50.414062 161.898438 51.226562 162.320312 52.792969 C 162.574219 53.722656 162.921875 54.652344 163.375 55.5 C 164.175781 56.96875 164.019531 58.121094 162.574219 59.136719 C 161.5 59.898438 160.296875 60.480469 159.167969 61.191406 C 157.417969 62.277344 157.300781 62.585938 157.679688 64.617188 C 158.058594 66.679688 157.660156 67.503906 155.710938 68.316406 C 154.035156 69.015625 152.300781 69.566406 150.617188 70.253906 C 148.644531 71.066406 147.410156 72.503906 146.851562 74.609375 Z M 134.386719 65.726562 C 133.898438 66.953125 133.574219 67.765625 133.371094 68.296875 C 133.785156 69.933594 134.640625 71.449219 134.355469 72.683594 C 134.027344 74.082031 132.859375 75.433594 131.730469 76.429688 C 129.640625 78.28125 127.132812 78.394531 123.796875 74.980469 C 125.472656 70.296875 128.542969 67.535156 134.386719 65.726562 Z M 223.398438 51.746094 C 223.050781 55.308594 222.511719 57.878906 222.597656 60.648438 C 222.628906 61.75 229.273438 58.640625 229.9375 58.429688 C 230.011719 58.410156 230.085938 58.386719 230.160156 58.367188 C 230.25 58.324219 230.347656 58.269531 230.441406 58.238281 C 231.632812 57.6875 232.949219 57.308594 234.144531 56.714844 L 237.160156 55.035156 L 237.6875 54.695312 L 238.289062 54.367188 C 238.488281 54.242188 238.75 54 238.71875 53.746094 C 238.6875 53.511719 238.613281 53.269531 238.59375 53.058594 C 238.582031 52.84375 238.289062 52.824219 238.507812 52.632812 C 238.71875 52.550781 238.117188 52.09375 238.835938 52.125 L 239.386719 52.253906 L 239.839844 52.402344 C 240.21875 52.558594 240.640625 52.910156 240.988281 53.164062 C 241.558594 53.597656 242.03125 53.976562 242.378906 54.496094 C 242.65625 54.898438 243.214844 56.019531 243.320312 56.472656 L 243.269531 56.503906 L 243.300781 56.789062 C 243.347656 56.863281 243.089844 58.070312 243.054688 58.101562 C 243.097656 58.335938 243.054688 58.714844 242.835938 58.851562 L 242.855469 58.894531 C 242.613281 59.203125 242.445312 59.128906 242.09375 59.371094 C 242.054688 59.984375 240.453125 60.746094 239.964844 60.796875 C 239.925781 60.722656 237.339844 61.761719 235 62.605469 C 231.632812 64.054688 228.078125 65.273438 226.121094 65.980469 L 225.929688 66.097656 L 225.824219 66.085938 C 225.527344 66.191406 225.273438 66.285156 225.074219 66.359375 C 224.539062 66.574219 223.378906 66.816406 223.640625 67.324219 C 224.222656 68.476562 224.160156 69.851562 226.054688 72.21875 C 226.617188 72.90625 227.648438 75.339844 228.175781 76.324219 C 228.820312 77.507812 230.085938 79.75 230.757812 80.871094 C 231.339844 81.832031 232.363281 83.15625 233.035156 84.136719 C 233.53125 84.878906 233.921875 85.691406 234.441406 86.390625 C 235.863281 88.285156 236.832031 89.339844 238.371094 90.695312 C 238.878906 91.140625 239.808594 91.976562 240.335938 92.34375 C 240.847656 92.703125 241.597656 93.136719 242.128906 93.421875 C 243.332031 94.089844 244.742188 94.46875 245.882812 94.832031 C 247.9375 95.496094 249.582031 95.867188 250.902344 96.015625 C 251.542969 96.078125 252.324219 96.109375 252.695312 96.171875 C 253.644531 96.332031 253.328125 96.597656 251.554688 97.359375 C 250.46875 97.84375 248.726562 98.859375 246.164062 99.515625 C 245.28125 99.738281 244.023438 99.992188 242.984375 100.402344 C 241.746094 100.890625 239.902344 100.476562 238.625 100.023438 C 237.191406 99.503906 236.328125 99.1875 235.011719 97.949219 C 234.417969 97.410156 233.847656 96.46875 233.308594 95.855469 C 231.464844 93.75 229.9375 91.941406 229.0625 90.175781 C 228.207031 88.578125 227.449219 86.59375 226.773438 85.292969 C 224.707031 81.347656 223.378906 78.703125 222.1875 76.851562 C 221.777344 76.21875 221.679688 76.003906 221.164062 76.003906 C 220.730469 76.003906 220.675781 76.492188 220.59375 76.703125 C 219.738281 78.796875 219.265625 81.207031 218.304688 83.324219 C 217.460938 85.164062 216.175781 86.730469 215.003906 88.335938 C 213.539062 90.335938 211.859375 92.175781 209.183594 93.105469 C 208.351562 93.390625 207.105469 93.625 206.117188 93.773438 C 204.320312 94.035156 202.265625 93.890625 199.554688 93.667969 C 196.433594 93.421875 191.359375 93.414062 187.335938 93.203125 C 184.285156 92.777344 183.875 92.089844 185.238281 91.171875 C 187.3125 90.726562 193.480469 90.292969 195.074219 90.0625 C 196.507812 89.847656 200 89.339844 201.640625 88.613281 C 204.46875 87.351562 206.328125 85.9375 208.46875 83.558594 C 209.550781 82.351562 210.257812 80.964844 211.136719 79.367188 C 211.820312 78.101562 212.789062 76.703125 212.957031 75.160156 C 213.191406 74.949219 213.886719 72.832031 214.464844 70.589844 C 213.71875 70.792969 213.011719 70.84375 212.421875 71.046875 C 211.324219 71.425781 210.460938 71.554688 209.785156 71.839844 C 208.425781 72.421875 207.769531 72.980469 207.347656 73.109375 C 206.628906 73.339844 206.539062 73.351562 205.628906 73.648438 C 204.933594 73.878906 204.921875 74.25 204.214844 74.503906 C 203.554688 74.746094 203.511719 74.800781 203.027344 75.097656 C 202.699219 75.308594 202.148438 75.445312 202.042969 75.667969 C 201.378906 76.472656 200.398438 76.40625 199.839844 76.925781 C 199.226562 77.09375 197.878906 76.871094 197.234375 76.027344 C 197.214844 76.003906 196.527344 74.96875 196.453125 74.851562 C 195.949219 74.101562 195.476562 73.574219 195.414062 73.5625 C 195.0625 71.457031 196.664062 70.378906 197.847656 69.945312 L 200.019531 69.152344 C 201.308594 69.035156 202.835938 68.117188 204.902344 67.324219 C 207.652344 66.277344 211.0625 65.632812 214.003906 64.214844 C 214.59375 63.929688 215.097656 63.683594 215.550781 63.472656 C 215.847656 61.929688 216.207031 60.25 216.554688 58.460938 C 216.871094 53.648438 218.738281 43.972656 218.886719 37.375 L 218.632812 29.589844 L 218.527344 29.589844 C 218.496094 28.605469 217.0625 27.371094 217.03125 26.449219 L 217.152344 26.574219 C 217.144531 26.375 217.164062 26.214844 217.03125 26.046875 L 217.03125 26.035156 L 217.089844 26.089844 C 217.074219 25.527344 217.332031 24.925781 217.714844 24.535156 L 218.410156 24.472656 L 218.378906 24.472656 C 220.203125 24.386719 222.199219 24.882812 223.925781 25.285156 L 223.9375 25.371094 L 224.316406 25.539062 C 224.433594 25.539062 224.730469 25.921875 224.761719 26.078125 C 225.105469 26.164062 225.484375 26.40625 225.558594 26.789062 C 225.875 26.914062 226.308594 27.242188 226.320312 27.632812 L 226.394531 27.632812 C 226.59375 28.171875 226.984375 28.257812 227.039062 28.882812 C 227.761719 29.398438 226.867188 31.8125 226.582031 32.457031 L 226.457031 32.457031 C 226.488281 33.398438 226.308594 34.742188 225.886719 35.585938 L 225.6875 36.71875 C 225.6875 36.71875 225.644531 36.875 225.644531 36.941406 C 224.625 40.703125 223.894531 47.007812 223.34375 51.746094 L 223.410156 51.746094 Z M 308.691406 110.554688 C 307.242188 110.386719 302.097656 110.046875 301.253906 110.046875 L 301.167969 110.046875 L 300.074219 109.351562 L 300.074219 109.171875 L 299.671875 109.171875 C 299.503906 109 298.554688 108.632812 298.554688 108.410156 L 298.511719 108.410156 C 298.304688 108.1875 297.351562 107.699219 297.046875 107.667969 L 297.046875 107.636719 L 296.316406 107.40625 C 296.316406 107.40625 295.117188 107.152344 294.855469 106.875 C 293.820312 105.839844 290.664062 102.78125 289.253906 102.773438 C 289.136719 102.625 288.957031 102.527344 288.777344 102.527344 L 287.632812 101.609375 L 287.535156 101.089844 L 286.964844 101.015625 C 286.921875 100.941406 286.882812 100.867188 286.851562 100.792969 C 287.261719 100.296875 288.90625 100.636719 291.203125 100.933594 C 292.660156 101.113281 293.925781 100.941406 295.496094 101.164062 C 296.707031 101.335938 297.828125 101.949219 298.878906 102.167969 C 299.640625 102.328125 300.265625 102.476562 300.78125 102.453125 C 301.105469 102.445312 301.453125 102.285156 301.589844 102.285156 C 301.589844 102.09375 301.589844 101.894531 301.582031 101.683594 C 301.507812 99.007812 300.960938 95.210938 300.898438 93.011719 C 300.835938 91.085938 300.84375 88.273438 300.992188 85.871094 C 298.953125 85.871094 287.90625 89.425781 287.652344 89.933594 L 287.726562 89.753906 C 285.929688 89.753906 282.71875 91.445312 281.144531 89.839844 C 281.101562 89.933594 280.984375 89.722656 280.902344 89.691406 L 280.902344 89.585938 C 280.300781 89.585938 279.914062 89.214844 279.382812 89.046875 L 279.382812 88.824219 C 278.898438 88.8125 277.105469 87.808594 277.105469 87.289062 L 277.097656 87.289062 L 276.347656 86.613281 L 276.347656 86.527344 L 275.882812 86.316406 C 275.882812 86.539062 275.585938 85.976562 275.585938 85.765625 L 275.417969 85.765625 C 275.269531 85.609375 275.207031 85.535156 275.003906 85.429688 C 275.078125 85.144531 274.796875 83.992188 275.164062 83.800781 C 275.164062 82.277344 278.074219 82.910156 278.738281 82.363281 C 283.082031 81.335938 283.1875 82.160156 286.859375 81.316406 C 290.929688 80.382812 296.359375 79.367188 297.121094 79.367188 L 297.4375 79.285156 C 298.386719 79.285156 300.78125 78.132812 302.003906 77.160156 C 303.460938 75.996094 303.386719 74.460938 303.691406 73.277344 L 304.207031 72.769531 C 304.566406 72.355469 304.796875 71.851562 304.859375 71.234375 L 305.144531 69.714844 C 303.75 69.714844 302.65625 69.152344 301.347656 69.132812 L 301.359375 69.132812 L 300.589844 69.058594 L 300.589844 68.941406 C 299.039062 68.941406 297.945312 69.214844 296.792969 68.242188 L 296.792969 68.179688 L 296.730469 68.179688 L 296.371094 67.226562 C 296.636719 67.089844 297.257812 66.464844 297.3125 66.160156 C 297.679688 66.097656 298.828125 65.429688 299.058594 65.199219 C 299.21875 65.027344 299.628906 65.125 299.832031 65.125 L 299.839844 64.730469 L 299.832031 64.730469 C 300.644531 64.730469 302.835938 62.628906 303.363281 62.058594 L 303.628906 62.058594 L 303.628906 61.886719 C 304.101562 61.707031 304.449219 61.390625 304.925781 61.316406 C 304.996094 61.253906 305.070312 61.179688 305.144531 61.105469 L 305.144531 61.050781 L 305.316406 60.945312 C 305.671875 60.597656 306.023438 60.226562 306.398438 59.910156 C 306.820312 59.5625 307.390625 59.359375 307.835938 59.136719 C 314.058594 56.058594 319.949219 52 324.84375 48.140625 C 324.84375 48.066406 324.84375 47.980469 324.84375 47.894531 C 324.8125 47.863281 324.789062 47.84375 324.757812 47.8125 C 319.003906 47.652344 312.292969 51.28125 306.90625 53.289062 C 303.363281 54.613281 298.921875 56.199219 295.863281 57.320312 C 295.476562 57.5625 294.832031 57.65625 294.113281 57.636719 C 294.019531 57.648438 293.933594 57.679688 293.859375 57.722656 C 293.734375 57.722656 293.617188 57.730469 293.492188 57.828125 C 293.449219 57.847656 293.40625 57.859375 293.363281 57.890625 C 293.269531 57.890625 293.148438 57.933594 293.0625 57.964844 C 293 57.976562 292.945312 57.984375 292.894531 58.007812 C 292.796875 58.007812 292.722656 58.007812 292.640625 58.027344 L 290.8125 58.027344 L 290.8125 58.175781 C 290.550781 58.175781 290.308594 58.15625 290.054688 58.207031 L 289.117188 58.207031 C 289.0625 58.195312 289 58.1875 288.957031 58.175781 C 288.800781 58.082031 288.652344 58.046875 288.472656 58.046875 L 288.472656 58.027344 L 285.046875 58.027344 C 284.984375 57.996094 284.910156 57.976562 284.835938 57.976562 C 284.761719 57.921875 284.6875 57.890625 284.59375 57.890625 C 284.488281 57.816406 284.328125 57.742188 284.222656 57.722656 C 284.109375 57.625 283.960938 57.550781 283.800781 57.550781 L 283.960938 57.550781 C 283.90625 57.5 283.863281 57.445312 283.800781 57.402344 L 283.800781 57.246094 L 283.792969 57.246094 L 283.792969 56.15625 C 283.792969 56.082031 283.78125 56.007812 283.757812 55.945312 C 283.75 55.871094 283.738281 55.796875 283.71875 55.734375 L 283.71875 55.183594 L 283.570312 55.320312 C 283.652344 55.234375 283.71875 55.140625 283.738281 55.011719 C 283.757812 54.972656 283.78125 54.941406 283.800781 54.886719 C 283.800781 54.726562 284.042969 54.515625 284.140625 54.421875 C 284.171875 54.390625 284.296875 54.335938 284.351562 54.285156 C 284.457031 54.230469 284.5625 54.167969 284.65625 54.105469 L 285.359375 54.105469 L 285.359375 53.734375 C 285.425781 53.703125 285.488281 53.648438 285.53125 53.597656 C 285.613281 53.574219 285.6875 53.53125 285.761719 53.480469 C 285.835938 53.46875 285.941406 53.4375 286.003906 53.40625 C 286.101562 53.40625 286.175781 53.394531 286.257812 53.363281 C 286.417969 53.363281 286.605469 53.386719 286.746094 53.320312 C 286.796875 53.320312 286.851562 53.320312 286.890625 53.3125 L 287.707031 53.3125 L 287.707031 53.097656 C 287.746094 53.089844 287.800781 53.066406 287.875 53.023438 C 287.988281 53.015625 288.261719 52.917969 288.378906 52.855469 C 288.472656 52.835938 288.558594 52.792969 288.632812 52.730469 C 288.726562 52.707031 288.820312 52.664062 288.894531 52.601562 C 289.03125 52.527344 289.09375 52.527344 289.253906 52.527344 L 289.253906 52.433594 C 289.308594 52.410156 289.347656 52.378906 289.402344 52.339844 C 289.464844 52.316406 289.527344 52.285156 289.582031 52.230469 C 289.675781 52.210938 289.769531 52.167969 289.84375 52.09375 C 289.941406 52.0625 290.003906 52.03125 290.097656 51.988281 C 290.195312 51.96875 290.300781 51.914062 290.375 51.851562 C 290.4375 51.820312 290.5 51.789062 290.5625 51.757812 C 290.644531 51.757812 290.730469 51.746094 290.8125 51.746094 L 290.8125 51.714844 C 290.867188 51.683594 290.917969 51.652344 290.972656 51.617188 C 291.046875 51.597656 291.109375 51.566406 291.171875 51.523438 C 291.234375 51.503906 291.332031 51.472656 291.382812 51.449219 C 291.519531 51.375 291.679688 51.363281 291.816406 51.257812 C 291.867188 51.25 291.933594 51.226562 291.996094 51.195312 C 292.367188 51.003906 292.734375 50.816406 293.074219 50.613281 C 297.4375 47.980469 305.113281 48.476562 303.523438 40.800781 C 303.144531 40.492188 302.289062 38.917969 301.582031 39.214844 C 300.792969 39.933594 299.628906 41.253906 298.828125 41.972656 C 297.996094 42.597656 296.421875 44.214844 294.96875 44.902344 C 294.367188 45.1875 293.796875 45.402344 293.363281 45.496094 C 293.34375 45.472656 293.3125 45.441406 293.28125 45.410156 C 293.28125 44.734375 293.25 43.941406 293.449219 43.296875 C 294.285156 40.515625 296.804688 38.136719 298.386719 35.933594 C 297.742188 35.40625 296.835938 34.773438 296.074219 33.957031 C 294.652344 32.414062 294.546875 34.476562 293.523438 34.996094 C 292.503906 35.511719 294.039062 34.996094 294.546875 36.230469 C 295.066406 37.46875 292.703125 39.625 292.195312 40.355469 C 291.679688 41.074219 290.761719 41.179688 290.65625 42.207031 C 290.445312 44.34375 291.742188 48.191406 288.492188 48.605469 C 287.90625 48.679688 282.925781 47.535156 283.125 46.933594 C 282.882812 46.152344 282.820312 44.4375 282.820312 43.972656 C 282.820312 42.28125 282.539062 39.265625 281.640625 37.375 C 281.269531 36.589844 280.574219 36.136719 280.09375 35.746094 C 279.796875 35.511719 280.019531 35.207031 280.128906 35.046875 C 282.03125 34.855469 284.984375 36.1875 286.152344 37.46875 C 288.367188 38.515625 286.914062 31.757812 287.292969 30.109375 C 287.597656 28.777344 289.222656 28.808594 289.835938 29.113281 C 290.457031 29.421875 291.785156 31.484375 291.785156 32.625 C 291.785156 33.757812 293.417969 32.933594 293.417969 32.933594 L 293.324219 29.9375 C 293.324219 29.9375 292.703125 28.597656 291.265625 28.394531 C 290.289062 28.257812 288.3125 26.554688 287.90625 25.496094 C 287.355469 24.113281 290.234375 24.660156 290.457031 24.367188 C 291.519531 23.636719 292.480469 23.402344 293.808594 23.097656 C 294.78125 22.886719 295.351562 22.9375 296.253906 22.8125 C 298.292969 22.527344 299.472656 26.628906 301.125 25.421875 C 303.984375 21.066406 307.824219 15.628906 310.460938 11 L 310.734375 10.523438 C 311.03125 10.171875 311.914062 9.265625 311.882812 8.9375 C 311.914062 8.871094 311.945312 8.796875 311.96875 8.726562 C 312.019531 8.628906 312.105469 8.375 312.113281 8.28125 C 312.328125 7.71875 312.695312 7.308594 312.832031 6.683594 C 312.863281 6.609375 312.917969 6.484375 312.9375 6.398438 C 313.003906 6.28125 313.054688 6.113281 313.054688 5.976562 C 313.234375 5.308594 313.59375 3.914062 313.148438 3.394531 C 313.023438 3.246094 313.042969 3.160156 313.023438 2.972656 C 312.832031 1.628906 313.191406 2.335938 312.664062 1.300781 C 312.652344 1.195312 312.664062 1.015625 312.621094 0.921875 L 312.578125 0.613281 C 312.621094 0.601562 312.652344 0.59375 312.683594 0.570312 C 313.742188 0.453125 312.9375 0.378906 313.804688 0.285156 C 313.878906 0.308594 313.953125 0.316406 314.027344 0.308594 C 314.089844 0.316406 314.140625 0.328125 314.207031 0.328125 C 314.519531 0.476562 316.0625 0.496094 316.167969 0.488281 C 316.199219 0.496094 316.238281 0.507812 316.28125 0.519531 C 316.378906 0.582031 316.492188 0.59375 316.609375 0.59375 C 317.125 0.570312 316.808594 0.570312 317.28125 0.730469 C 317.578125 0.835938 317.925781 0.878906 318.191406 0.847656 C 318.285156 0.855469 318.359375 0.886719 318.464844 0.878906 C 318.527344 0.910156 318.601562 0.921875 318.675781 0.929688 C 318.71875 0.953125 318.761719 0.972656 318.8125 0.984375 C 318.941406 1.101562 319.085938 1.132812 319.257812 1.164062 C 319.332031 1.207031 319.40625 1.238281 319.484375 1.246094 C 319.589844 1.320312 319.726562 1.355469 319.855469 1.355469 C 319.972656 1.40625 320.109375 1.449219 320.226562 1.449219 C 320.289062 1.46875 320.351562 1.480469 320.414062 1.480469 C 320.488281 1.5 320.5625 1.511719 320.648438 1.5 C 320.679688 1.511719 320.710938 1.511719 320.730469 1.511719 C 320.773438 1.542969 320.816406 1.566406 320.859375 1.585938 C 320.996094 1.703125 321.070312 1.746094 321.238281 1.808594 C 321.269531 1.828125 321.355469 1.914062 321.398438 1.933594 C 321.511719 2.03125 321.648438 2.074219 321.765625 2.15625 C 321.871094 2.242188 321.988281 2.347656 322.109375 2.402344 C 322.300781 2.546875 322.300781 2.441406 322.386719 2.644531 C 322.429688 2.726562 322.480469 2.800781 322.542969 2.875 C 322.617188 2.992188 322.746094 3.054688 322.851562 3.152344 C 322.914062 3.257812 322.957031 3.34375 323.0625 3.40625 C 323.070312 3.4375 323.09375 3.457031 323.113281 3.488281 C 323.144531 3.5625 323.199219 3.636719 323.261719 3.703125 C 323.304688 3.753906 323.378906 3.847656 323.421875 3.902344 C 323.460938 3.976562 323.515625 4.050781 323.570312 4.113281 C 323.621094 4.261719 323.726562 4.390625 323.855469 4.460938 C 323.925781 4.527344 323.9375 4.644531 324.066406 4.757812 C 324.105469 4.855469 324.179688 4.9375 324.253906 5.003906 C 324.296875 5.054688 324.328125 5.109375 324.371094 5.160156 C 324.414062 5.265625 324.457031 5.371094 324.539062 5.457031 C 324.5625 5.519531 324.613281 5.605469 324.65625 5.667969 L 324.738281 6.410156 C 324.667969 6.523438 324.667969 6.671875 324.6875 6.820312 C 324.699219 6.925781 324.667969 7 324.675781 7.117188 C 324.613281 7.253906 324.6875 7.613281 324.59375 7.898438 C 324.53125 8.039062 324.539062 8.292969 324.445312 8.417969 C 324.371094 8.503906 324.296875 8.585938 324.253906 8.691406 C 324.234375 8.726562 324.210938 8.757812 324.191406 8.789062 C 323.875 9.085938 323.167969 9.707031 323 10.097656 C 322.925781 10.152344 322.753906 10.332031 322.703125 10.40625 C 322.523438 10.542969 322.535156 10.5 322.460938 10.734375 C 322.386719 10.777344 322.289062 10.882812 322.25 10.945312 C 322.152344 11 322.0625 11.0625 322 11.15625 C 321.933594 11.199219 321.871094 11.261719 321.796875 11.316406 C 320.835938 11.8125 320.085938 12.542969 319.320312 13.347656 C 319.226562 13.410156 319.078125 13.472656 318.992188 13.546875 C 318.941406 13.589844 318.886719 13.621094 318.835938 13.652344 C 318.761719 13.683594 318.695312 13.714844 318.644531 13.769531 L 318.105469 14.191406 L 318.117188 14.191406 C 315.554688 17.617188 311.378906 22.566406 310.132812 24.472656 C 309.878906 24.832031 310.292969 25.742188 310.554688 25.898438 C 311.210938 26.300781 312.0625 26.714844 312.496094 27.261719 C 312.421875 27.675781 310.96875 28.597656 310.546875 29.136719 C 309.835938 30.042969 309.363281 30.234375 308.339844 31.113281 C 306.84375 32.402344 306.191406 32.753906 306.011719 33.820312 C 305.90625 34.519531 308.910156 36.910156 309.121094 38.367188 C 309.351562 39.964844 307.117188 41.316406 307.910156 42.703125 C 308.902344 42.832031 309.46875 43.265625 309.722656 44.121094 C 310.472656 43.847656 311.402344 42.660156 312.359375 41.699219 C 312.980469 41.074219 313.582031 40.9375 313.71875 40.15625 C 313.742188 39.996094 313.773438 39.828125 313.792969 39.667969 C 312.621094 38.558594 311.496094 37.679688 311.136719 35.851562 C 311.082031 35.535156 310.441406 33.90625 311.167969 32.5625 C 311.648438 31.683594 310.9375 30.265625 311.472656 29.621094 C 312.261719 28.648438 313.234375 28.238281 314.089844 27.984375 C 316.417969 28.097656 316.355469 30.921875 318.359375 31.90625 C 319.71875 31.707031 322.511719 26.289062 323.210938 25.074219 C 323.1875 25.023438 323.15625 24.96875 323.136719 24.90625 C 320.371094 24.9375 317.34375 25.414062 316.082031 23.605469 C 316.238281 20.675781 321.269531 20.316406 323.707031 19.542969 C 325.519531 18.972656 325.730469 17.640625 327.199219 17.195312 C 329.316406 16.539062 336.167969 23.402344 334.800781 25.847656 C 329.601562 27.941406 321.96875 37.511719 318.136719 42.617188 C 318.160156 42.734375 318.191406 42.839844 318.222656 42.957031 C 318.761719 43.136719 318.800781 43.402344 319.046875 43.867188 C 322.3125 43.847656 325.71875 43.085938 329.222656 42.90625 C 330.335938 42.839844 332.121094 43.421875 334.957031 45.273438 C 336.699219 46.40625 335.160156 48.5 335.148438 49.28125 C 334.769531 50.5625 333.605469 50.761719 331.890625 52.105469 C 330.898438 52.886719 329.167969 53.511719 327.785156 54.179688 C 326.414062 54.84375 325.414062 55.5625 323.789062 56.175781 C 322.480469 56.675781 320.363281 57.976562 319.003906 58.503906 C 316.1875 59.601562 313.5 60.925781 310.863281 62.023438 C 310.417969 62.3125 309.996094 62.574219 309.835938 62.574219 C 309.617188 62.796875 309.226562 62.828125 308.945312 62.828125 L 308.945312 62.890625 L 307.992188 63.167969 L 308.023438 63.144531 C 307.972656 63.144531 307.917969 63.144531 307.835938 63.15625 C 307.59375 63.242188 307.347656 63.316406 307.097656 63.390625 C 306.640625 63.527344 306.191406 63.652344 305.746094 63.78125 C 305.335938 63.960938 305.03125 64.160156 304.945312 64.351562 L 304.386719 64.351562 L 304.386719 65.125 L 305.90625 65.125 L 305.90625 65.09375 L 305.917969 65.09375 C 306.515625 65.558594 308.203125 64.351562 308.945312 64.351562 L 308.945312 64.257812 L 310.460938 63.738281 C 310.726562 63.863281 312.136719 63.589844 312.496094 63.589844 C 312.644531 63.738281 312.824219 63.863281 313.042969 63.875 L 313.003906 63.875 L 313.488281 64.351562 C 313.761719 64.351562 313.996094 64.730469 314.246094 64.796875 L 314.246094 65.125 C 314.742188 65.125 314.636719 65.144531 314.929688 65.441406 C 315.015625 65.527344 315.003906 65.769531 315.003906 65.886719 L 315.078125 65.886719 L 315.710938 66.710938 L 315.765625 67.417969 L 315.871094 67.417969 L 315.871094 68.179688 L 315.765625 68.179688 L 315.765625 68.316406 L 315.003906 68.941406 L 315.003906 69.003906 L 314.285156 69.714844 L 314.246094 69.714844 L 314.140625 69.957031 L 313.847656 70.476562 L 313.488281 70.476562 C 313.488281 71.003906 313.351562 70.898438 313.011719 71.246094 L 312.738281 71.246094 L 312.738281 71.417969 C 311.421875 72.304688 311.09375 72.335938 309.953125 73.296875 C 309.699219 73.511719 309.308594 73.871094 309.097656 74.261719 C 308.933594 74.589844 309.023438 74.789062 308.992188 75.105469 C 308.945312 75.464844 308.839844 75.953125 309.203125 76.113281 C 309.550781 76.257812 310.429688 75.984375 310.671875 75.910156 L 310.660156 75.910156 C 310.546875 75.910156 310.851562 75.878906 310.945312 75.824219 L 310.894531 75.824219 C 311.285156 75.824219 311.628906 75.507812 312 75.507812 C 312 75.476562 314.445312 74.671875 316.683594 74.058594 C 319.054688 73.402344 322.25 72.71875 322.300781 72.683594 L 322.25 72.683594 C 324.820312 72.644531 324.054688 72.875 326.226562 74.070312 L 326.226562 74.269531 C 326.660156 74.269531 326.710938 74.355469 326.984375 74.632812 L 326.984375 75.03125 L 327.394531 75.03125 C 327.847656 75.613281 329.402344 76.28125 329.359375 77.117188 C 329.242188 79.222656 329.539062 78.566406 327.542969 79.316406 C 326.785156 79.601562 325.253906 79.601562 324.496094 79.8125 C 322.882812 80.246094 321.34375 80.4375 319.792969 80.882812 C 317.957031 81.398438 316.132812 81.453125 314.488281 81.917969 C 312.769531 82.414062 311.527344 82.054688 310.195312 82.582031 C 310.195312 82.488281 309.425781 83.164062 309.265625 83.164062 C 309.066406 87.5 310.28125 95.84375 310.367188 99.992188 C 311.117188 101.96875 310.449219 103.503906 310.015625 105.34375 L 309.941406 105.34375 L 309.921875 107.382812 L 309.941406 107.351562 C 309.902344 107.445312 309.890625 107.53125 309.890625 107.625 L 309.902344 107.59375 L 309.351562 109.171875 L 309.183594 109.171875 C 309.183594 109.761719 309.140625 110.226562 308.691406 110.554688 Z M 277.664062 53.890625 C 279.132812 53.660156 279.40625 54.464844 280.234375 55.171875 C 280.691406 55.554688 281.261719 55.691406 281.597656 56.304688 C 282.125 57.296875 281.871094 60.554688 281.417969 61.117188 C 280.839844 61.824219 280.246094 62.152344 279.53125 62.816406 C 279.195312 63.390625 278.855469 63.960938 278.527344 64.519531 C 277.359375 66.476562 272.601562 64.332031 271.960938 62.511719 C 272.453125 60.839844 273.742188 59.921875 274.765625 58.566406 C 275.28125 57.867188 275.300781 56.949219 275.746094 56.207031 C 276.21875 55.425781 277.117188 54.601562 277.664062 53.890625 "/>
</g>
</svg>
